G04 #@! TF.GenerationSoftware,KiCad,Pcbnew,7.0.7*
G04 #@! TF.CreationDate,2023-10-31T18:13:57+09:00*
G04 #@! TF.ProjectId,PCB_OnlyServo,5043425f-4f6e-46c7-9953-6572766f2e6b,rev?*
G04 #@! TF.SameCoordinates,Original*
G04 #@! TF.FileFunction,Copper,L1,Top*
G04 #@! TF.FilePolarity,Positive*
%FSLAX46Y46*%
G04 Gerber Fmt 4.6, Leading zero omitted, Abs format (unit mm)*
G04 Created by KiCad (PCBNEW 7.0.7) date 2023-10-31 18:13:57*
%MOMM*%
%LPD*%
G01*
G04 APERTURE LIST*
G04 Aperture macros list*
%AMRoundRect*
0 Rectangle with rounded corners*
0 $1 Rounding radius*
0 $2 $3 $4 $5 $6 $7 $8 $9 X,Y pos of 4 corners*
0 Add a 4 corners polygon primitive as box body*
4,1,4,$2,$3,$4,$5,$6,$7,$8,$9,$2,$3,0*
0 Add four circle primitives for the rounded corners*
1,1,$1+$1,$2,$3*
1,1,$1+$1,$4,$5*
1,1,$1+$1,$6,$7*
1,1,$1+$1,$8,$9*
0 Add four rect primitives between the rounded corners*
20,1,$1+$1,$2,$3,$4,$5,0*
20,1,$1+$1,$4,$5,$6,$7,0*
20,1,$1+$1,$6,$7,$8,$9,0*
20,1,$1+$1,$8,$9,$2,$3,0*%
G04 Aperture macros list end*
G04 #@! TA.AperFunction,ComponentPad*
%ADD10R,2.300000X1.500000*%
G04 #@! TD*
G04 #@! TA.AperFunction,ComponentPad*
%ADD11O,2.300000X1.500000*%
G04 #@! TD*
G04 #@! TA.AperFunction,ComponentPad*
%ADD12C,1.524000*%
G04 #@! TD*
G04 #@! TA.AperFunction,ComponentPad*
%ADD13C,2.000000*%
G04 #@! TD*
G04 #@! TA.AperFunction,ComponentPad*
%ADD14C,1.600000*%
G04 #@! TD*
G04 #@! TA.AperFunction,SMDPad,CuDef*
%ADD15O,2.748280X1.998980*%
G04 #@! TD*
G04 #@! TA.AperFunction,SMDPad,CuDef*
%ADD16O,1.016000X2.032000*%
G04 #@! TD*
G04 #@! TA.AperFunction,SMDPad,CuDef*
%ADD17C,1.143000*%
G04 #@! TD*
G04 #@! TA.AperFunction,ComponentPad*
%ADD18RoundRect,0.250000X0.600000X0.725000X-0.600000X0.725000X-0.600000X-0.725000X0.600000X-0.725000X0*%
G04 #@! TD*
G04 #@! TA.AperFunction,ComponentPad*
%ADD19O,1.700000X1.950000*%
G04 #@! TD*
G04 #@! TA.AperFunction,ComponentPad*
%ADD20R,1.800000X1.800000*%
G04 #@! TD*
G04 #@! TA.AperFunction,ComponentPad*
%ADD21O,1.800000X1.800000*%
G04 #@! TD*
G04 #@! TA.AperFunction,ViaPad*
%ADD22C,0.800000*%
G04 #@! TD*
G04 #@! TA.AperFunction,Conductor*
%ADD23C,0.100000*%
G04 #@! TD*
G04 #@! TA.AperFunction,Conductor*
%ADD24C,0.250000*%
G04 #@! TD*
G04 APERTURE END LIST*
D10*
X149207500Y-95447000D03*
D11*
X149207500Y-92907000D03*
X149207500Y-90367000D03*
D12*
X165270000Y-95000000D03*
X162730000Y-95000000D03*
X162730000Y-97540000D03*
D13*
X118500000Y-85070000D03*
X118500000Y-87610000D03*
X118500000Y-90150000D03*
X118500000Y-92690000D03*
X133740000Y-92690000D03*
X133740000Y-90150000D03*
D14*
X133740000Y-87610000D03*
X133740000Y-85070000D03*
D13*
X118500000Y-95230000D03*
X121040000Y-95230000D03*
X123580000Y-95230000D03*
X118500000Y-97770000D03*
X121040000Y-97770000D03*
X123580000Y-97770000D03*
X121040000Y-100310000D03*
X121040000Y-102850000D03*
D15*
X123133120Y-58682180D03*
X123133120Y-61222180D03*
X123133120Y-63762180D03*
X123133120Y-66302180D03*
X123133120Y-68842180D03*
X123133120Y-71382180D03*
X123133120Y-73922180D03*
X139297680Y-73922180D03*
X139297680Y-71382180D03*
X139297680Y-68842180D03*
X139297680Y-66302180D03*
X139297680Y-63762180D03*
X139297680Y-61222180D03*
X139297680Y-58682180D03*
D16*
X130000000Y-75000000D03*
X132550000Y-75000000D03*
D17*
X129998803Y-57995813D03*
X132538803Y-57995813D03*
X129998803Y-60535813D03*
X132538803Y-60535813D03*
D18*
X158750000Y-60000000D03*
D19*
X156250000Y-60000000D03*
X153750000Y-60000000D03*
X151250000Y-60000000D03*
D20*
X143920000Y-78000000D03*
D21*
X154080000Y-78000000D03*
D20*
X154080000Y-105000000D03*
D21*
X143920000Y-105000000D03*
D22*
X145000000Y-61000000D03*
D23*
X154080000Y-100319500D02*
X149207500Y-95447000D01*
X154080000Y-105000000D02*
X154080000Y-100319500D01*
X138000000Y-105000000D02*
X137000000Y-104000000D01*
X143920000Y-105000000D02*
X138000000Y-105000000D01*
X137000000Y-104000000D02*
X137000000Y-88330000D01*
X137000000Y-88330000D02*
X133740000Y-85070000D01*
X143920000Y-76402804D02*
X140148866Y-72631670D01*
X137500000Y-71726196D02*
X137500000Y-60479860D01*
X143920000Y-78000000D02*
X143920000Y-76402804D01*
X138405474Y-72631670D02*
X137500000Y-71726196D01*
X137500000Y-60479860D02*
X139297680Y-58682180D01*
X140148866Y-72631670D02*
X138405474Y-72631670D01*
X154080000Y-85494500D02*
X149207500Y-90367000D01*
X154080000Y-78000000D02*
X154080000Y-85494500D01*
D24*
X144777820Y-61222180D02*
X139297680Y-61222180D01*
X145000000Y-61000000D02*
X144777820Y-61222180D01*
D23*
X156250000Y-60000000D02*
X156375000Y-60000000D01*
X139297680Y-63762180D02*
X152487820Y-63762180D01*
X165270000Y-68895000D02*
X165270000Y-95000000D01*
X156375000Y-60000000D02*
X165270000Y-68895000D01*
X152487820Y-63762180D02*
X156250000Y-60000000D01*
X152525000Y-61225000D02*
X150126376Y-61225000D01*
X153750000Y-60000000D02*
X152525000Y-61225000D01*
X150126376Y-61225000D02*
X145901376Y-57000000D01*
X145901376Y-57000000D02*
X124815300Y-57000000D01*
X124815300Y-57000000D02*
X123133120Y-58682180D01*
X121508980Y-58164624D02*
X121508980Y-59598040D01*
X147250000Y-56000000D02*
X123673604Y-56000000D01*
X121508980Y-59598040D02*
X123133120Y-61222180D01*
X123673604Y-56000000D02*
X121508980Y-58164624D01*
X151250000Y-60000000D02*
X147250000Y-56000000D01*
X161500000Y-108000000D02*
X119000000Y-108000000D01*
X163742000Y-105758000D02*
X161500000Y-108000000D01*
X116000000Y-70895300D02*
X123133120Y-63762180D01*
X119000000Y-108000000D02*
X116000000Y-105000000D01*
X116000000Y-105000000D02*
X116000000Y-70895300D01*
X163742000Y-96012000D02*
X163742000Y-105758000D01*
X162730000Y-95000000D02*
X163742000Y-96012000D01*
X139297680Y-73922180D02*
X138923030Y-73922180D01*
X138923030Y-73922180D02*
X127775210Y-85070000D01*
X127775210Y-85070000D02*
X118500000Y-85070000D01*
X123133120Y-73922180D02*
X120077820Y-73922180D01*
X117000000Y-86882233D02*
X117727767Y-87610000D01*
X120077820Y-73922180D02*
X117000000Y-77000000D01*
X117727767Y-87610000D02*
X118500000Y-87610000D01*
X117000000Y-77000000D02*
X117000000Y-86882233D01*
X116500000Y-88150000D02*
X118500000Y-90150000D01*
X121197820Y-66302180D02*
X116500000Y-71000000D01*
X116500000Y-71000000D02*
X116500000Y-88150000D01*
X123133120Y-66302180D02*
X121197820Y-66302180D01*
G04 #@! TA.AperFunction,Conductor*
G36*
X145054263Y-60607709D02*
G01*
X145085356Y-60614317D01*
X145109987Y-60619552D01*
X145134638Y-60627562D01*
X145186684Y-60650734D01*
X145209127Y-60663692D01*
X145255215Y-60697177D01*
X145274479Y-60714522D01*
X145312600Y-60756860D01*
X145327837Y-60777831D01*
X145356322Y-60827168D01*
X145366864Y-60850847D01*
X145384468Y-60905027D01*
X145389858Y-60930385D01*
X145395812Y-60987039D01*
X145395812Y-61012959D01*
X145389858Y-61069613D01*
X145384468Y-61094971D01*
X145366864Y-61149151D01*
X145356320Y-61172833D01*
X145327836Y-61222169D01*
X145312599Y-61243141D01*
X145274488Y-61285468D01*
X145255221Y-61302816D01*
X145209124Y-61336306D01*
X145186677Y-61349265D01*
X145134639Y-61372434D01*
X145109986Y-61380445D01*
X145072790Y-61388352D01*
X145054263Y-61392290D01*
X145028482Y-61395000D01*
X144971517Y-61395000D01*
X144945736Y-61392290D01*
X144926390Y-61388178D01*
X144835077Y-61368768D01*
X144828808Y-61367089D01*
X144819154Y-61363952D01*
X144819139Y-61363948D01*
X144789550Y-61357658D01*
X144768701Y-61353227D01*
X144663599Y-61342180D01*
X144195752Y-61342180D01*
X144128713Y-61322495D01*
X144082958Y-61269691D01*
X144073014Y-61200533D01*
X144102039Y-61136977D01*
X144160817Y-61099203D01*
X144181031Y-61095057D01*
X144240630Y-61087931D01*
X144240632Y-61087930D01*
X144240637Y-61087930D01*
X144297458Y-61074145D01*
X144409919Y-61032198D01*
X144527119Y-60948738D01*
X144577684Y-60900523D01*
X144666619Y-60787431D01*
X144672158Y-60777835D01*
X144687392Y-60756865D01*
X144725519Y-60714521D01*
X144744771Y-60697185D01*
X144790877Y-60663687D01*
X144813312Y-60650736D01*
X144865357Y-60627563D01*
X144889999Y-60619556D01*
X144945743Y-60607708D01*
X144971514Y-60605000D01*
X145028484Y-60605000D01*
X145054263Y-60607709D01*
G37*
G04 #@! TD.AperFunction*
G04 #@! TA.AperFunction,NonConductor*
G36*
X166218454Y-51019685D02*
G01*
X166264209Y-51072489D01*
X166274153Y-51141647D01*
X166245128Y-51205203D01*
X166242314Y-51208341D01*
X166088365Y-51374258D01*
X165936345Y-51597231D01*
X165936344Y-51597232D01*
X165819263Y-51840355D01*
X165739720Y-52098226D01*
X165739718Y-52098232D01*
X165699500Y-52365063D01*
X165699500Y-52634936D01*
X165739718Y-52901767D01*
X165739720Y-52901773D01*
X165819262Y-53159641D01*
X165936346Y-53402769D01*
X166088365Y-53625741D01*
X166271910Y-53823557D01*
X166271914Y-53823560D01*
X166271915Y-53823561D01*
X166482898Y-53991815D01*
X166716602Y-54126743D01*
X166967805Y-54225334D01*
X167230897Y-54285383D01*
X167259715Y-54287542D01*
X167432618Y-54300500D01*
X167432624Y-54300500D01*
X167567382Y-54300500D01*
X167718671Y-54289162D01*
X167769103Y-54285383D01*
X168032195Y-54225334D01*
X168283398Y-54126743D01*
X168517102Y-53991815D01*
X168728085Y-53823561D01*
X168785101Y-53762111D01*
X168845129Y-53726357D01*
X168914958Y-53728732D01*
X168972419Y-53768482D01*
X168999267Y-53832987D01*
X169000000Y-53846453D01*
X169000000Y-106153546D01*
X168980315Y-106220585D01*
X168927511Y-106266340D01*
X168858353Y-106276284D01*
X168794797Y-106247259D01*
X168785102Y-106237887D01*
X168728094Y-106176447D01*
X168728091Y-106176444D01*
X168728085Y-106176439D01*
X168517102Y-106008185D01*
X168283398Y-105873257D01*
X168283396Y-105873256D01*
X168032195Y-105774666D01*
X168032188Y-105774664D01*
X167769101Y-105714616D01*
X167567382Y-105699500D01*
X167567376Y-105699500D01*
X167432624Y-105699500D01*
X167432618Y-105699500D01*
X167230898Y-105714616D01*
X166967811Y-105774664D01*
X166967804Y-105774666D01*
X166716603Y-105873256D01*
X166716599Y-105873258D01*
X166482898Y-106008185D01*
X166271910Y-106176442D01*
X166088365Y-106374258D01*
X165936345Y-106597231D01*
X165936344Y-106597232D01*
X165819263Y-106840355D01*
X165739720Y-107098226D01*
X165739718Y-107098232D01*
X165699500Y-107365063D01*
X165699500Y-107634936D01*
X165739718Y-107901767D01*
X165739720Y-107901773D01*
X165819262Y-108159641D01*
X165936346Y-108402769D01*
X165936348Y-108402771D01*
X165936349Y-108402774D01*
X166037066Y-108550499D01*
X166088365Y-108625741D01*
X166242314Y-108791659D01*
X166273482Y-108854191D01*
X166265895Y-108923648D01*
X166221961Y-108977976D01*
X166155630Y-108999928D01*
X166151415Y-109000000D01*
X113848585Y-109000000D01*
X113781546Y-108980315D01*
X113735791Y-108927511D01*
X113725847Y-108858353D01*
X113754872Y-108794797D01*
X113757686Y-108791659D01*
X113792458Y-108754182D01*
X113911635Y-108625741D01*
X114063651Y-108402775D01*
X114180738Y-108159641D01*
X114260280Y-107901772D01*
X114300500Y-107634929D01*
X114300500Y-107365071D01*
X114260280Y-107098228D01*
X114180738Y-106840359D01*
X114063651Y-106597226D01*
X113911635Y-106374259D01*
X113900536Y-106362297D01*
X113728089Y-106176442D01*
X113595696Y-106070862D01*
X113517102Y-106008185D01*
X113283398Y-105873257D01*
X113283396Y-105873256D01*
X113032195Y-105774666D01*
X113032188Y-105774664D01*
X112769101Y-105714616D01*
X112567382Y-105699500D01*
X112567376Y-105699500D01*
X112432624Y-105699500D01*
X112432618Y-105699500D01*
X112230898Y-105714616D01*
X111967811Y-105774664D01*
X111967804Y-105774666D01*
X111716603Y-105873256D01*
X111716599Y-105873258D01*
X111482898Y-106008185D01*
X111271908Y-106176444D01*
X111271905Y-106176447D01*
X111214898Y-106237887D01*
X111154870Y-106273642D01*
X111085041Y-106271267D01*
X111027581Y-106231516D01*
X111000733Y-106167011D01*
X111000000Y-106153546D01*
X111000000Y-70914275D01*
X115444648Y-70914275D01*
X115447697Y-70931956D01*
X115449500Y-70953024D01*
X115449500Y-104990602D01*
X115447238Y-105056829D01*
X115457715Y-105099819D01*
X115458901Y-105106061D01*
X115464929Y-105149920D01*
X115472079Y-105166379D01*
X115478819Y-105186420D01*
X115483067Y-105203852D01*
X115504763Y-105242439D01*
X115507582Y-105248115D01*
X115525220Y-105288720D01*
X115525221Y-105288722D01*
X115536541Y-105302636D01*
X115548439Y-105320117D01*
X115557234Y-105335760D01*
X115557236Y-105335761D01*
X115588532Y-105367057D01*
X115592783Y-105371766D01*
X115620722Y-105406108D01*
X115635381Y-105416455D01*
X115651552Y-105430077D01*
X118604093Y-108382618D01*
X118649320Y-108431044D01*
X118687144Y-108454045D01*
X118692374Y-108457604D01*
X118727658Y-108484361D01*
X118735930Y-108487623D01*
X118744353Y-108490945D01*
X118763290Y-108500351D01*
X118778618Y-108509672D01*
X118821247Y-108521616D01*
X118827261Y-108523639D01*
X118833086Y-108525935D01*
X118868436Y-108539876D01*
X118886287Y-108541711D01*
X118907052Y-108545657D01*
X118924335Y-108550500D01*
X118968594Y-108550500D01*
X118974935Y-108550824D01*
X119018972Y-108555352D01*
X119036655Y-108552303D01*
X119057724Y-108550500D01*
X161490603Y-108550500D01*
X161556826Y-108552762D01*
X161599832Y-108542280D01*
X161606051Y-108541098D01*
X161649920Y-108535070D01*
X161666383Y-108527918D01*
X161686416Y-108521181D01*
X161703852Y-108516933D01*
X161742465Y-108495221D01*
X161748090Y-108492427D01*
X161788720Y-108474780D01*
X161802632Y-108463460D01*
X161820123Y-108451557D01*
X161835755Y-108442768D01*
X161835753Y-108442768D01*
X161835759Y-108442766D01*
X161867059Y-108411464D01*
X161871771Y-108407211D01*
X161906108Y-108379278D01*
X161916456Y-108364616D01*
X161930074Y-108348449D01*
X164124618Y-106153906D01*
X164173044Y-106108680D01*
X164196049Y-106070847D01*
X164199606Y-106065622D01*
X164226361Y-106030342D01*
X164232943Y-106013648D01*
X164242344Y-105994719D01*
X164251672Y-105979382D01*
X164263619Y-105936739D01*
X164265632Y-105930753D01*
X164281876Y-105889564D01*
X164283553Y-105873257D01*
X164283711Y-105871716D01*
X164287658Y-105850944D01*
X164292500Y-105833665D01*
X164292500Y-105789404D01*
X164292825Y-105783060D01*
X164293688Y-105774664D01*
X164297352Y-105739028D01*
X164294303Y-105721343D01*
X164292500Y-105700275D01*
X164292500Y-96094978D01*
X164312185Y-96027939D01*
X164364989Y-95982184D01*
X164434147Y-95972240D01*
X164487623Y-95993403D01*
X164636333Y-96097531D01*
X164636335Y-96097532D01*
X164636338Y-96097534D01*
X164836550Y-96190894D01*
X165049932Y-96248070D01*
X165207123Y-96261822D01*
X165269998Y-96267323D01*
X165270000Y-96267323D01*
X165270002Y-96267323D01*
X165325017Y-96262509D01*
X165490068Y-96248070D01*
X165703450Y-96190894D01*
X165903662Y-96097534D01*
X166084620Y-95970826D01*
X166240826Y-95814620D01*
X166367534Y-95633662D01*
X166460894Y-95433450D01*
X166518070Y-95220068D01*
X166537323Y-95000000D01*
X166518070Y-94779932D01*
X166460894Y-94566550D01*
X166367534Y-94366339D01*
X166248613Y-94196501D01*
X166240827Y-94185381D01*
X166172753Y-94117307D01*
X166084620Y-94029174D01*
X166084616Y-94029171D01*
X166084615Y-94029170D01*
X165903666Y-93902468D01*
X165903664Y-93902467D01*
X165892092Y-93897071D01*
X165839654Y-93850897D01*
X165820500Y-93784690D01*
X165820500Y-68904414D01*
X165820572Y-68902295D01*
X165822763Y-68838174D01*
X165816974Y-68814421D01*
X165812281Y-68795163D01*
X165811094Y-68788918D01*
X165805070Y-68745081D01*
X165797920Y-68728620D01*
X165791181Y-68708583D01*
X165786933Y-68691148D01*
X165765234Y-68652556D01*
X165762414Y-68646878D01*
X165744780Y-68606280D01*
X165744780Y-68606279D01*
X165733458Y-68592363D01*
X165721557Y-68574876D01*
X165712768Y-68559244D01*
X165712767Y-68559243D01*
X165712766Y-68559241D01*
X165681456Y-68527931D01*
X165677210Y-68523225D01*
X165669812Y-68514132D01*
X165649278Y-68488892D01*
X165634612Y-68478539D01*
X165618445Y-68464920D01*
X158840705Y-61687180D01*
X158807220Y-61625857D01*
X158812204Y-61556165D01*
X158854076Y-61500232D01*
X158919540Y-61475815D01*
X158928386Y-61475499D01*
X159400002Y-61475499D01*
X159400008Y-61475499D01*
X159502797Y-61464999D01*
X159669334Y-61409814D01*
X159818656Y-61317712D01*
X159942712Y-61193656D01*
X160034814Y-61044334D01*
X160089999Y-60877797D01*
X160100500Y-60775009D01*
X160100499Y-59224992D01*
X160089999Y-59122203D01*
X160034814Y-58955666D01*
X159942712Y-58806344D01*
X159818656Y-58682288D01*
X159708335Y-58614242D01*
X159669336Y-58590187D01*
X159669331Y-58590185D01*
X159667381Y-58589539D01*
X159502797Y-58535001D01*
X159502795Y-58535000D01*
X159400010Y-58524500D01*
X158099998Y-58524500D01*
X158099981Y-58524501D01*
X157997203Y-58535000D01*
X157997200Y-58535001D01*
X157830668Y-58590185D01*
X157830663Y-58590187D01*
X157681342Y-58682289D01*
X157557289Y-58806342D01*
X157461821Y-58961121D01*
X157409873Y-59007845D01*
X157340910Y-59019068D01*
X157276828Y-58991224D01*
X157268601Y-58983705D01*
X157121402Y-58836506D01*
X157121395Y-58836501D01*
X156927834Y-58700967D01*
X156927830Y-58700965D01*
X156887777Y-58682288D01*
X156713663Y-58601097D01*
X156713659Y-58601096D01*
X156713655Y-58601094D01*
X156485413Y-58539938D01*
X156485403Y-58539936D01*
X156250001Y-58519341D01*
X156249999Y-58519341D01*
X156014596Y-58539936D01*
X156014586Y-58539938D01*
X155786344Y-58601094D01*
X155786335Y-58601098D01*
X155572171Y-58700964D01*
X155572169Y-58700965D01*
X155378597Y-58836505D01*
X155211505Y-59003597D01*
X155101575Y-59160595D01*
X155046998Y-59204220D01*
X154977500Y-59211414D01*
X154915145Y-59179891D01*
X154898425Y-59160595D01*
X154788494Y-59003597D01*
X154621402Y-58836506D01*
X154621395Y-58836501D01*
X154427834Y-58700967D01*
X154427830Y-58700965D01*
X154387777Y-58682288D01*
X154213663Y-58601097D01*
X154213659Y-58601096D01*
X154213655Y-58601094D01*
X153985413Y-58539938D01*
X153985403Y-58539936D01*
X153750001Y-58519341D01*
X153749999Y-58519341D01*
X153514596Y-58539936D01*
X153514586Y-58539938D01*
X153286344Y-58601094D01*
X153286335Y-58601098D01*
X153072171Y-58700964D01*
X153072169Y-58700965D01*
X152878597Y-58836505D01*
X152711505Y-59003597D01*
X152601575Y-59160595D01*
X152546998Y-59204220D01*
X152477500Y-59211414D01*
X152415145Y-59179891D01*
X152398425Y-59160595D01*
X152288494Y-59003597D01*
X152121402Y-58836506D01*
X152121395Y-58836501D01*
X151927834Y-58700967D01*
X151927830Y-58700965D01*
X151887777Y-58682288D01*
X151713663Y-58601097D01*
X151713659Y-58601096D01*
X151713655Y-58601094D01*
X151485413Y-58539938D01*
X151485403Y-58539936D01*
X151250001Y-58519341D01*
X151249999Y-58519341D01*
X151014596Y-58539936D01*
X151014586Y-58539938D01*
X150786344Y-58601094D01*
X150786334Y-58601098D01*
X150758145Y-58614242D01*
X150689067Y-58624731D01*
X150625284Y-58596209D01*
X150618063Y-58589539D01*
X149138225Y-57109701D01*
X147645907Y-55617382D01*
X147600680Y-55568956D01*
X147581403Y-55557233D01*
X147562861Y-55545957D01*
X147557610Y-55542383D01*
X147522341Y-55515638D01*
X147522342Y-55515638D01*
X147505642Y-55509052D01*
X147486716Y-55499652D01*
X147471380Y-55490327D01*
X147428758Y-55478384D01*
X147422740Y-55476360D01*
X147381565Y-55460124D01*
X147381556Y-55460122D01*
X147363716Y-55458288D01*
X147342951Y-55454342D01*
X147325669Y-55449500D01*
X147325665Y-55449500D01*
X147281406Y-55449500D01*
X147275064Y-55449175D01*
X147247427Y-55446333D01*
X147231029Y-55444648D01*
X147231024Y-55444648D01*
X147213344Y-55447697D01*
X147192276Y-55449500D01*
X123683019Y-55449500D01*
X123669770Y-55449047D01*
X123616778Y-55447237D01*
X123616777Y-55447237D01*
X123616774Y-55447237D01*
X123573768Y-55457717D01*
X123567530Y-55458902D01*
X123523686Y-55464929D01*
X123523683Y-55464930D01*
X123507222Y-55472080D01*
X123487189Y-55478816D01*
X123469756Y-55483064D01*
X123469747Y-55483068D01*
X123431156Y-55504766D01*
X123425469Y-55507590D01*
X123384885Y-55525218D01*
X123384881Y-55525220D01*
X123370967Y-55536541D01*
X123353492Y-55548435D01*
X123337845Y-55557233D01*
X123306538Y-55588539D01*
X123301825Y-55592792D01*
X123267500Y-55620717D01*
X123267495Y-55620722D01*
X123257146Y-55635383D01*
X123243527Y-55651550D01*
X121126361Y-57768717D01*
X121077937Y-57813941D01*
X121054936Y-57851763D01*
X121051364Y-57857012D01*
X121024619Y-57892282D01*
X121024616Y-57892287D01*
X121018035Y-57908976D01*
X121008633Y-57927907D01*
X120999307Y-57943243D01*
X120987365Y-57985861D01*
X120985342Y-57991879D01*
X120969102Y-58033064D01*
X120967268Y-58050908D01*
X120963322Y-58071672D01*
X120958481Y-58088952D01*
X120958480Y-58088961D01*
X120958480Y-58133218D01*
X120958155Y-58139563D01*
X120953628Y-58183594D01*
X120953628Y-58183599D01*
X120956677Y-58201280D01*
X120958480Y-58222348D01*
X120958480Y-59588642D01*
X120956218Y-59654869D01*
X120966695Y-59697859D01*
X120967881Y-59704101D01*
X120973909Y-59747960D01*
X120981059Y-59764419D01*
X120987798Y-59784459D01*
X120992047Y-59801892D01*
X120999998Y-59816034D01*
X121013743Y-59840479D01*
X121016562Y-59846155D01*
X121022989Y-59860950D01*
X121034201Y-59886762D01*
X121045521Y-59900676D01*
X121057419Y-59918157D01*
X121066214Y-59933800D01*
X121066216Y-59933801D01*
X121097512Y-59965097D01*
X121101763Y-59969806D01*
X121129702Y-60004148D01*
X121144361Y-60014495D01*
X121160532Y-60028117D01*
X121444611Y-60312196D01*
X121478096Y-60373519D01*
X121473112Y-60443211D01*
X121465985Y-60458894D01*
X121380114Y-60617569D01*
X121380109Y-60617579D01*
X121299396Y-60852688D01*
X121267417Y-61044331D01*
X121258480Y-61097887D01*
X121258480Y-61346473D01*
X121269050Y-61409814D01*
X121299396Y-61591671D01*
X121380109Y-61826780D01*
X121380111Y-61826785D01*
X121498424Y-62045408D01*
X121498428Y-62045413D01*
X121651103Y-62241570D01*
X121651112Y-62241580D01*
X121824233Y-62400951D01*
X121860224Y-62460838D01*
X121858123Y-62530676D01*
X121824233Y-62583409D01*
X121651112Y-62742779D01*
X121651103Y-62742789D01*
X121498428Y-62938946D01*
X121498424Y-62938951D01*
X121380111Y-63157574D01*
X121380109Y-63157579D01*
X121299396Y-63392688D01*
X121258480Y-63637888D01*
X121258480Y-63886471D01*
X121299396Y-64131671D01*
X121380109Y-64366780D01*
X121380114Y-64366790D01*
X121465984Y-64525465D01*
X121480579Y-64593793D01*
X121455916Y-64659165D01*
X121444610Y-64672163D01*
X115617381Y-70499393D01*
X115568957Y-70544617D01*
X115545956Y-70582439D01*
X115542384Y-70587688D01*
X115515639Y-70622958D01*
X115515636Y-70622963D01*
X115509055Y-70639652D01*
X115499653Y-70658583D01*
X115490327Y-70673919D01*
X115478385Y-70716537D01*
X115476362Y-70722555D01*
X115460122Y-70763740D01*
X115458288Y-70781584D01*
X115454342Y-70802348D01*
X115449501Y-70819628D01*
X115449500Y-70819637D01*
X115449500Y-70863894D01*
X115449175Y-70870239D01*
X115444648Y-70914270D01*
X115444648Y-70914275D01*
X111000000Y-70914275D01*
X111000000Y-53846453D01*
X111019685Y-53779414D01*
X111072489Y-53733659D01*
X111141647Y-53723715D01*
X111205203Y-53752740D01*
X111214899Y-53762112D01*
X111271910Y-53823557D01*
X111271914Y-53823560D01*
X111271915Y-53823561D01*
X111482898Y-53991815D01*
X111716602Y-54126743D01*
X111967805Y-54225334D01*
X112230897Y-54285383D01*
X112259715Y-54287542D01*
X112432618Y-54300500D01*
X112432624Y-54300500D01*
X112567382Y-54300500D01*
X112718671Y-54289162D01*
X112769103Y-54285383D01*
X113032195Y-54225334D01*
X113283398Y-54126743D01*
X113517102Y-53991815D01*
X113728085Y-53823561D01*
X113911635Y-53625741D01*
X114063651Y-53402775D01*
X114180738Y-53159641D01*
X114260280Y-52901772D01*
X114300500Y-52634929D01*
X114300500Y-52365071D01*
X114260280Y-52098228D01*
X114180738Y-51840359D01*
X114063651Y-51597226D01*
X113911635Y-51374259D01*
X113757686Y-51208341D01*
X113726518Y-51145809D01*
X113734105Y-51076352D01*
X113778039Y-51022024D01*
X113844370Y-51000072D01*
X113848585Y-51000000D01*
X166151415Y-51000000D01*
X166218454Y-51019685D01*
G37*
G04 #@! TD.AperFunction*
G04 #@! TA.AperFunction,NonConductor*
G36*
X124253951Y-56570185D02*
G01*
X124299706Y-56622989D01*
X124309650Y-56692147D01*
X124280625Y-56755703D01*
X124274593Y-56762181D01*
X123872106Y-57164667D01*
X123810783Y-57198152D01*
X123760753Y-57197305D01*
X123760567Y-57198421D01*
X123755505Y-57197576D01*
X123598230Y-57184544D01*
X123569813Y-57182190D01*
X123569811Y-57182190D01*
X123569301Y-57182190D01*
X123502262Y-57162505D01*
X123456507Y-57109701D01*
X123446563Y-57040543D01*
X123475588Y-56976987D01*
X123481620Y-56970509D01*
X123865310Y-56586819D01*
X123926633Y-56553334D01*
X123952991Y-56550500D01*
X124186912Y-56550500D01*
X124253951Y-56570185D01*
G37*
G04 #@! TD.AperFunction*
G04 #@! TA.AperFunction,NonConductor*
G36*
X147037652Y-56570185D02*
G01*
X147058294Y-56586819D01*
X149905760Y-59434285D01*
X149939245Y-59495608D01*
X149937854Y-59554057D01*
X149914937Y-59639589D01*
X149914937Y-59639590D01*
X149899500Y-59816034D01*
X149899500Y-59920237D01*
X149879815Y-59987276D01*
X149827011Y-60033031D01*
X149757853Y-60042975D01*
X149694297Y-60013950D01*
X149687819Y-60007918D01*
X146442082Y-56762181D01*
X146408597Y-56700858D01*
X146413581Y-56631166D01*
X146455453Y-56575233D01*
X146520917Y-56550816D01*
X146529763Y-56550500D01*
X146970613Y-56550500D01*
X147037652Y-56570185D01*
G37*
G04 #@! TD.AperFunction*
G04 #@! TA.AperFunction,NonConductor*
G36*
X145689028Y-57570185D02*
G01*
X145709669Y-57586818D01*
X149730455Y-61607603D01*
X149775696Y-61656044D01*
X149813516Y-61679042D01*
X149818755Y-61682607D01*
X149854034Y-61709361D01*
X149870729Y-61715944D01*
X149889666Y-61725351D01*
X149904994Y-61734672D01*
X149930906Y-61741932D01*
X149947613Y-61746613D01*
X149953630Y-61748636D01*
X149994811Y-61764876D01*
X149994813Y-61764876D01*
X149994816Y-61764877D01*
X150007437Y-61766174D01*
X150012655Y-61766710D01*
X150033431Y-61770658D01*
X150050711Y-61775500D01*
X150094969Y-61775500D01*
X150101310Y-61775824D01*
X150145347Y-61780352D01*
X150163030Y-61777303D01*
X150184099Y-61775500D01*
X152515603Y-61775500D01*
X152581826Y-61777762D01*
X152624832Y-61767280D01*
X152631051Y-61766098D01*
X152674920Y-61760070D01*
X152691383Y-61752918D01*
X152711416Y-61746181D01*
X152728852Y-61741933D01*
X152767465Y-61720221D01*
X152773090Y-61717427D01*
X152813720Y-61699780D01*
X152827632Y-61688460D01*
X152845123Y-61676557D01*
X152860755Y-61667768D01*
X152860753Y-61667768D01*
X152860759Y-61667766D01*
X152892059Y-61636464D01*
X152896771Y-61632211D01*
X152931108Y-61604278D01*
X152941456Y-61589616D01*
X152955074Y-61573449D01*
X153118065Y-61410458D01*
X153179386Y-61376975D01*
X153249078Y-61381959D01*
X153258147Y-61385758D01*
X153286337Y-61398903D01*
X153514592Y-61460063D01*
X153706535Y-61476856D01*
X153771603Y-61502309D01*
X153812582Y-61558899D01*
X153816460Y-61628661D01*
X153783408Y-61688065D01*
X152296114Y-63175361D01*
X152234791Y-63208846D01*
X152208433Y-63211680D01*
X141153857Y-63211680D01*
X141086818Y-63191995D01*
X141044802Y-63146698D01*
X140932375Y-62938951D01*
X140932371Y-62938946D01*
X140779696Y-62742789D01*
X140779693Y-62742786D01*
X140779691Y-62742783D01*
X140779687Y-62742779D01*
X140606566Y-62583408D01*
X140570575Y-62523521D01*
X140572676Y-62453683D01*
X140606563Y-62400953D01*
X140779691Y-62241577D01*
X140932375Y-62045409D01*
X141004214Y-61912661D01*
X141053434Y-61863072D01*
X141113269Y-61847680D01*
X144663599Y-61847680D01*
X144714036Y-61858401D01*
X144720197Y-61861144D01*
X144905354Y-61900500D01*
X144905355Y-61900500D01*
X145094644Y-61900500D01*
X145094646Y-61900500D01*
X145279803Y-61861144D01*
X145452730Y-61784151D01*
X145605871Y-61672888D01*
X145732533Y-61532216D01*
X145827179Y-61368284D01*
X145885674Y-61188256D01*
X145905460Y-61000000D01*
X145885674Y-60811744D01*
X145827179Y-60631716D01*
X145732533Y-60467784D01*
X145605871Y-60327112D01*
X145585341Y-60312196D01*
X145452734Y-60215851D01*
X145452729Y-60215848D01*
X145279807Y-60138857D01*
X145279802Y-60138855D01*
X145134000Y-60107865D01*
X145094646Y-60099500D01*
X144905354Y-60099500D01*
X144872897Y-60106398D01*
X144720197Y-60138855D01*
X144720192Y-60138857D01*
X144547270Y-60215848D01*
X144547265Y-60215851D01*
X144394129Y-60327111D01*
X144267467Y-60467783D01*
X144267466Y-60467785D01*
X144228844Y-60534680D01*
X144178279Y-60582895D01*
X144121458Y-60596680D01*
X141113269Y-60596680D01*
X141046230Y-60576995D01*
X141004214Y-60531698D01*
X140986429Y-60498835D01*
X140932375Y-60398951D01*
X140811105Y-60243143D01*
X140779696Y-60202789D01*
X140779693Y-60202785D01*
X140746521Y-60172248D01*
X140606565Y-60043408D01*
X140570575Y-59983522D01*
X140572676Y-59913684D01*
X140606564Y-59860951D01*
X140779691Y-59701577D01*
X140932375Y-59505409D01*
X141050689Y-59286784D01*
X141131404Y-59051668D01*
X141172320Y-58806473D01*
X141172320Y-58557887D01*
X141131404Y-58312692D01*
X141093156Y-58201280D01*
X141050690Y-58077579D01*
X141050688Y-58077574D01*
X140959447Y-57908976D01*
X140932375Y-57858951D01*
X140848089Y-57750661D01*
X140822448Y-57685668D01*
X140836015Y-57617128D01*
X140884483Y-57566803D01*
X140945944Y-57550500D01*
X145621989Y-57550500D01*
X145689028Y-57570185D01*
G37*
G04 #@! TD.AperFunction*
G04 #@! TA.AperFunction,NonConductor*
G36*
X121390598Y-66990439D02*
G01*
X121446531Y-67032311D01*
X121456319Y-67047604D01*
X121498421Y-67125403D01*
X121498428Y-67125413D01*
X121651103Y-67321570D01*
X121651112Y-67321580D01*
X121824233Y-67480951D01*
X121860224Y-67540838D01*
X121858123Y-67610676D01*
X121824233Y-67663409D01*
X121651112Y-67822779D01*
X121651103Y-67822789D01*
X121498428Y-68018946D01*
X121498424Y-68018951D01*
X121380111Y-68237574D01*
X121380109Y-68237579D01*
X121299396Y-68472688D01*
X121258480Y-68717888D01*
X121258480Y-68966471D01*
X121299396Y-69211671D01*
X121380109Y-69446780D01*
X121380111Y-69446785D01*
X121498424Y-69665408D01*
X121498428Y-69665413D01*
X121651103Y-69861570D01*
X121651112Y-69861580D01*
X121824233Y-70020951D01*
X121860224Y-70080838D01*
X121858123Y-70150676D01*
X121824233Y-70203409D01*
X121651112Y-70362779D01*
X121651103Y-70362789D01*
X121498428Y-70558946D01*
X121498424Y-70558951D01*
X121380111Y-70777574D01*
X121380109Y-70777579D01*
X121299396Y-71012688D01*
X121258480Y-71257888D01*
X121258480Y-71506471D01*
X121299396Y-71751671D01*
X121380109Y-71986780D01*
X121380111Y-71986785D01*
X121498424Y-72205408D01*
X121498428Y-72205413D01*
X121651103Y-72401570D01*
X121651112Y-72401580D01*
X121824233Y-72560951D01*
X121860224Y-72620838D01*
X121858123Y-72690676D01*
X121824233Y-72743409D01*
X121651112Y-72902779D01*
X121651103Y-72902789D01*
X121498428Y-73098946D01*
X121498424Y-73098951D01*
X121385998Y-73306698D01*
X121336778Y-73356288D01*
X121276943Y-73371680D01*
X120087217Y-73371680D01*
X120020994Y-73369418D01*
X120020993Y-73369418D01*
X120020991Y-73369418D01*
X119977990Y-73379897D01*
X119971750Y-73381082D01*
X119927899Y-73387110D01*
X119911436Y-73394261D01*
X119891395Y-73401000D01*
X119873970Y-73405246D01*
X119873963Y-73405249D01*
X119835386Y-73426939D01*
X119829699Y-73429764D01*
X119789099Y-73447400D01*
X119789096Y-73447401D01*
X119775176Y-73458726D01*
X119757706Y-73470616D01*
X119742061Y-73479413D01*
X119742060Y-73479414D01*
X119710754Y-73510719D01*
X119706041Y-73514972D01*
X119671716Y-73542897D01*
X119671711Y-73542902D01*
X119661362Y-73557563D01*
X119647743Y-73573730D01*
X117262180Y-75959293D01*
X117200857Y-75992778D01*
X117131165Y-75987794D01*
X117075232Y-75945922D01*
X117050815Y-75880458D01*
X117050499Y-75871638D01*
X117050499Y-71279385D01*
X117070184Y-71212347D01*
X117086813Y-71191710D01*
X121259585Y-67018938D01*
X121320906Y-66985455D01*
X121390598Y-66990439D01*
G37*
G04 #@! TD.AperFunction*
G04 #@! TA.AperFunction,NonConductor*
G36*
X128913794Y-57570185D02*
G01*
X128959549Y-57622989D01*
X128969493Y-57692147D01*
X128966022Y-57708433D01*
X128940540Y-57797992D01*
X128922210Y-57995812D01*
X128922210Y-57995813D01*
X128940540Y-58193635D01*
X128940541Y-58193638D01*
X128994907Y-58384718D01*
X128994910Y-58384724D01*
X129083465Y-58562566D01*
X129203192Y-58721111D01*
X129296831Y-58806473D01*
X129350011Y-58854953D01*
X129478660Y-58934610D01*
X129512670Y-58955668D01*
X129518924Y-58959540D01*
X129704179Y-59031308D01*
X129899468Y-59067813D01*
X129899471Y-59067813D01*
X130098135Y-59067813D01*
X130098138Y-59067813D01*
X130293427Y-59031308D01*
X130478682Y-58959540D01*
X130647595Y-58854953D01*
X130794415Y-58721109D01*
X130914141Y-58562566D01*
X131002696Y-58384723D01*
X131002696Y-58384720D01*
X131002698Y-58384718D01*
X131033828Y-58275304D01*
X131057065Y-58193636D01*
X131075396Y-57995813D01*
X131075031Y-57991879D01*
X131057065Y-57797992D01*
X131057065Y-57797990D01*
X131031583Y-57708433D01*
X131032172Y-57638566D01*
X131070439Y-57580108D01*
X131134236Y-57551618D01*
X131150851Y-57550500D01*
X131386755Y-57550500D01*
X131453794Y-57570185D01*
X131499549Y-57622989D01*
X131509493Y-57692147D01*
X131506022Y-57708433D01*
X131480540Y-57797992D01*
X131462210Y-57995812D01*
X131462210Y-57995813D01*
X131480540Y-58193635D01*
X131480541Y-58193638D01*
X131534907Y-58384718D01*
X131534910Y-58384724D01*
X131623465Y-58562566D01*
X131743192Y-58721111D01*
X131836831Y-58806473D01*
X131890011Y-58854953D01*
X132018661Y-58934610D01*
X132052670Y-58955668D01*
X132058924Y-58959540D01*
X132244179Y-59031308D01*
X132439468Y-59067813D01*
X132439471Y-59067813D01*
X132638135Y-59067813D01*
X132638138Y-59067813D01*
X132833427Y-59031308D01*
X133018682Y-58959540D01*
X133187595Y-58854953D01*
X133334415Y-58721109D01*
X133454141Y-58562566D01*
X133542696Y-58384723D01*
X133542696Y-58384720D01*
X133542698Y-58384718D01*
X133573828Y-58275304D01*
X133597065Y-58193636D01*
X133615396Y-57995813D01*
X133615031Y-57991879D01*
X133597065Y-57797992D01*
X133597065Y-57797990D01*
X133571583Y-57708433D01*
X133572172Y-57638566D01*
X133610439Y-57580108D01*
X133674236Y-57551618D01*
X133690851Y-57550500D01*
X137649416Y-57550500D01*
X137716455Y-57570185D01*
X137762210Y-57622989D01*
X137772154Y-57692147D01*
X137747270Y-57750662D01*
X137662983Y-57858953D01*
X137544671Y-58077574D01*
X137544669Y-58077579D01*
X137463956Y-58312688D01*
X137451937Y-58384718D01*
X137423040Y-58557887D01*
X137423040Y-58806473D01*
X137428052Y-58836506D01*
X137463956Y-59051671D01*
X137544669Y-59286780D01*
X137544674Y-59286790D01*
X137630544Y-59445465D01*
X137645139Y-59513793D01*
X137620476Y-59579165D01*
X137609170Y-59592163D01*
X137117382Y-60083952D01*
X137068957Y-60129177D01*
X137045956Y-60166999D01*
X137042384Y-60172248D01*
X137015639Y-60207518D01*
X137015636Y-60207523D01*
X137009055Y-60224212D01*
X136999653Y-60243143D01*
X136990327Y-60258479D01*
X136978385Y-60301097D01*
X136976362Y-60307115D01*
X136960122Y-60348300D01*
X136958288Y-60366144D01*
X136954342Y-60386908D01*
X136949501Y-60404188D01*
X136949500Y-60404197D01*
X136949500Y-60448454D01*
X136949175Y-60454799D01*
X136944648Y-60498830D01*
X136944648Y-60498835D01*
X136947697Y-60516516D01*
X136949500Y-60537584D01*
X136949500Y-71716798D01*
X136947238Y-71783025D01*
X136957715Y-71826015D01*
X136958901Y-71832257D01*
X136964929Y-71876116D01*
X136972079Y-71892575D01*
X136978819Y-71912616D01*
X136983067Y-71930048D01*
X137004763Y-71968635D01*
X137007582Y-71974311D01*
X137025220Y-72014916D01*
X137025221Y-72014918D01*
X137036541Y-72028832D01*
X137048439Y-72046313D01*
X137057234Y-72061956D01*
X137057236Y-72061957D01*
X137088532Y-72093253D01*
X137092783Y-72097962D01*
X137120722Y-72132304D01*
X137135381Y-72142651D01*
X137151552Y-72156273D01*
X137774300Y-72779021D01*
X137807785Y-72840344D01*
X137802801Y-72910036D01*
X137784473Y-72942864D01*
X137662983Y-73098953D01*
X137544671Y-73317574D01*
X137544669Y-73317579D01*
X137463956Y-73552688D01*
X137460445Y-73573730D01*
X137423040Y-73797887D01*
X137423040Y-74046473D01*
X137432672Y-74104196D01*
X137463956Y-74291671D01*
X137518318Y-74450022D01*
X137521468Y-74519821D01*
X137488718Y-74577966D01*
X127583504Y-84483181D01*
X127522181Y-84516666D01*
X127495823Y-84519500D01*
X119978048Y-84519500D01*
X119911009Y-84499815D01*
X119865254Y-84447011D01*
X119864492Y-84445310D01*
X119824173Y-84353393D01*
X119688166Y-84145217D01*
X119618880Y-84069953D01*
X119519744Y-83962262D01*
X119323509Y-83809526D01*
X119323507Y-83809525D01*
X119323506Y-83809524D01*
X119104811Y-83691172D01*
X119104802Y-83691169D01*
X118869616Y-83610429D01*
X118624335Y-83569500D01*
X118375665Y-83569500D01*
X118130383Y-83610429D01*
X117895197Y-83691169D01*
X117895183Y-83691175D01*
X117733516Y-83778665D01*
X117665188Y-83793260D01*
X117599816Y-83768597D01*
X117558155Y-83712507D01*
X117550499Y-83669610D01*
X117550499Y-83569500D01*
X117550499Y-77279383D01*
X117570184Y-77212348D01*
X117586813Y-77191711D01*
X119220982Y-75557543D01*
X128991500Y-75557543D01*
X129006091Y-75705699D01*
X129063760Y-75895808D01*
X129157401Y-76070998D01*
X129157405Y-76071005D01*
X129283431Y-76224568D01*
X129436994Y-76350594D01*
X129437001Y-76350598D01*
X129612191Y-76444239D01*
X129612193Y-76444239D01*
X129612196Y-76444241D01*
X129802299Y-76501908D01*
X129802298Y-76501908D01*
X129820024Y-76503653D01*
X130000000Y-76521380D01*
X130197701Y-76501908D01*
X130387804Y-76444241D01*
X130563004Y-76350595D01*
X130716568Y-76224568D01*
X130842595Y-76071004D01*
X130902306Y-75959293D01*
X130936239Y-75895808D01*
X130936239Y-75895807D01*
X130936241Y-75895804D01*
X130993908Y-75705701D01*
X131008500Y-75557547D01*
X131008500Y-75557543D01*
X131541500Y-75557543D01*
X131556091Y-75705699D01*
X131613760Y-75895808D01*
X131707401Y-76070998D01*
X131707405Y-76071005D01*
X131833431Y-76224568D01*
X131986994Y-76350594D01*
X131987001Y-76350598D01*
X132162191Y-76444239D01*
X132162193Y-76444239D01*
X132162196Y-76444241D01*
X132352299Y-76501908D01*
X132352298Y-76501908D01*
X132371769Y-76503825D01*
X132550000Y-76521380D01*
X132747701Y-76501908D01*
X132937804Y-76444241D01*
X133113004Y-76350595D01*
X133266568Y-76224568D01*
X133392595Y-76071004D01*
X133452306Y-75959293D01*
X133486239Y-75895808D01*
X133486239Y-75895807D01*
X133486241Y-75895804D01*
X133543908Y-75705701D01*
X133558500Y-75557547D01*
X133558500Y-74442453D01*
X133543908Y-74294299D01*
X133486241Y-74104196D01*
X133486239Y-74104193D01*
X133486239Y-74104191D01*
X133392598Y-73929001D01*
X133392594Y-73928994D01*
X133266568Y-73775431D01*
X133113005Y-73649405D01*
X133112998Y-73649401D01*
X132937808Y-73555760D01*
X132796724Y-73512963D01*
X132747701Y-73498092D01*
X132747699Y-73498091D01*
X132747701Y-73498091D01*
X132567725Y-73480365D01*
X132550000Y-73478620D01*
X132549999Y-73478620D01*
X132352300Y-73498091D01*
X132162191Y-73555760D01*
X131987001Y-73649401D01*
X131986994Y-73649405D01*
X131833431Y-73775431D01*
X131707405Y-73928994D01*
X131707401Y-73929001D01*
X131613760Y-74104191D01*
X131556091Y-74294300D01*
X131541500Y-74442456D01*
X131541500Y-75557543D01*
X131008500Y-75557543D01*
X131008500Y-74442453D01*
X130993908Y-74294299D01*
X130936241Y-74104196D01*
X130936239Y-74104193D01*
X130936239Y-74104191D01*
X130842598Y-73929001D01*
X130842594Y-73928994D01*
X130716568Y-73775431D01*
X130563005Y-73649405D01*
X130562998Y-73649401D01*
X130387808Y-73555760D01*
X130246724Y-73512963D01*
X130197701Y-73498092D01*
X130197699Y-73498091D01*
X130197701Y-73498091D01*
X130000000Y-73478620D01*
X129802300Y-73498091D01*
X129612191Y-73555760D01*
X129437001Y-73649401D01*
X129436994Y-73649405D01*
X129283431Y-73775431D01*
X129157405Y-73928994D01*
X129157401Y-73929001D01*
X129063760Y-74104191D01*
X129006091Y-74294300D01*
X128991500Y-74442456D01*
X128991500Y-75557543D01*
X119220982Y-75557543D01*
X120269526Y-74508999D01*
X120330849Y-74475514D01*
X120357207Y-74472680D01*
X121276943Y-74472680D01*
X121343982Y-74492365D01*
X121385998Y-74537662D01*
X121498424Y-74745408D01*
X121498428Y-74745413D01*
X121651103Y-74941570D01*
X121651112Y-74941580D01*
X121833998Y-75109939D01*
X121833997Y-75109939D01*
X121833999Y-75109940D01*
X122042107Y-75245903D01*
X122269755Y-75345759D01*
X122510734Y-75406783D01*
X122696427Y-75422170D01*
X122696429Y-75422170D01*
X123569811Y-75422170D01*
X123569813Y-75422170D01*
X123755506Y-75406783D01*
X123996485Y-75345759D01*
X124224133Y-75245903D01*
X124432241Y-75109940D01*
X124615131Y-74941577D01*
X124767815Y-74745409D01*
X124886129Y-74526784D01*
X124966844Y-74291668D01*
X125007760Y-74046473D01*
X125007760Y-73797887D01*
X124966844Y-73552692D01*
X124963481Y-73542897D01*
X124886130Y-73317579D01*
X124886128Y-73317574D01*
X124767815Y-73098951D01*
X124767811Y-73098946D01*
X124615136Y-72902789D01*
X124615133Y-72902785D01*
X124615131Y-72902783D01*
X124442005Y-72743408D01*
X124406015Y-72683522D01*
X124408116Y-72613684D01*
X124442004Y-72560951D01*
X124615131Y-72401577D01*
X124767815Y-72205409D01*
X124886129Y-71986784D01*
X124966844Y-71751668D01*
X125007760Y-71506473D01*
X125007760Y-71257887D01*
X124966844Y-71012692D01*
X124942717Y-70942413D01*
X124886130Y-70777579D01*
X124886128Y-70777574D01*
X124767815Y-70558951D01*
X124767811Y-70558946D01*
X124615136Y-70362789D01*
X124615133Y-70362785D01*
X124615131Y-70362783D01*
X124442005Y-70203408D01*
X124406015Y-70143522D01*
X124408116Y-70073684D01*
X124442004Y-70020951D01*
X124615131Y-69861577D01*
X124767815Y-69665409D01*
X124886129Y-69446784D01*
X124966844Y-69211668D01*
X125007760Y-68966473D01*
X125007760Y-68717887D01*
X124966844Y-68472692D01*
X124966752Y-68472425D01*
X124886130Y-68237579D01*
X124886128Y-68237574D01*
X124767815Y-68018951D01*
X124767811Y-68018946D01*
X124615136Y-67822789D01*
X124615133Y-67822785D01*
X124615131Y-67822783D01*
X124442005Y-67663408D01*
X124406015Y-67603522D01*
X124408116Y-67533684D01*
X124442004Y-67480951D01*
X124615131Y-67321577D01*
X124767815Y-67125409D01*
X124886129Y-66906784D01*
X124966844Y-66671668D01*
X125007760Y-66426473D01*
X125007760Y-66177887D01*
X124966844Y-65932692D01*
X124886129Y-65697576D01*
X124767815Y-65478951D01*
X124615131Y-65282783D01*
X124442005Y-65123408D01*
X124406015Y-65063522D01*
X124408116Y-64993684D01*
X124442004Y-64940951D01*
X124615131Y-64781577D01*
X124767815Y-64585409D01*
X124886129Y-64366784D01*
X124966844Y-64131668D01*
X125007760Y-63886473D01*
X125007760Y-63637887D01*
X124966844Y-63392692D01*
X124886129Y-63157576D01*
X124767815Y-62938951D01*
X124615131Y-62742783D01*
X124442005Y-62583408D01*
X124406015Y-62523522D01*
X124408116Y-62453684D01*
X124442004Y-62400951D01*
X124615131Y-62241577D01*
X124767815Y-62045409D01*
X124886129Y-61826784D01*
X124966844Y-61591668D01*
X125007760Y-61346473D01*
X125007760Y-61097887D01*
X124966844Y-60852692D01*
X124952785Y-60811740D01*
X124886130Y-60617579D01*
X124886128Y-60617574D01*
X124841881Y-60535813D01*
X128922210Y-60535813D01*
X128940540Y-60733635D01*
X128940541Y-60733638D01*
X128994907Y-60924718D01*
X128994910Y-60924724D01*
X129083465Y-61102566D01*
X129203192Y-61261111D01*
X129296831Y-61346473D01*
X129350011Y-61394953D01*
X129518924Y-61499540D01*
X129704179Y-61571308D01*
X129899468Y-61607813D01*
X129899471Y-61607813D01*
X130098135Y-61607813D01*
X130098138Y-61607813D01*
X130293427Y-61571308D01*
X130478682Y-61499540D01*
X130647595Y-61394953D01*
X130794415Y-61261109D01*
X130914141Y-61102566D01*
X131002696Y-60924723D01*
X131002696Y-60924720D01*
X131002698Y-60924718D01*
X131057064Y-60733638D01*
X131057065Y-60733635D01*
X131075396Y-60535813D01*
X131462210Y-60535813D01*
X131480540Y-60733635D01*
X131480541Y-60733638D01*
X131534907Y-60924718D01*
X131534910Y-60924724D01*
X131623465Y-61102566D01*
X131743192Y-61261111D01*
X131836831Y-61346473D01*
X131890011Y-61394953D01*
X132058924Y-61499540D01*
X132244179Y-61571308D01*
X132439468Y-61607813D01*
X132439471Y-61607813D01*
X132638135Y-61607813D01*
X132638138Y-61607813D01*
X132833427Y-61571308D01*
X133018682Y-61499540D01*
X133187595Y-61394953D01*
X133334415Y-61261109D01*
X133454141Y-61102566D01*
X133542696Y-60924723D01*
X133542696Y-60924720D01*
X133542698Y-60924718D01*
X133597064Y-60733638D01*
X133597065Y-60733635D01*
X133615396Y-60535813D01*
X133615396Y-60535812D01*
X133597065Y-60337990D01*
X133597064Y-60337987D01*
X133542698Y-60146907D01*
X133542695Y-60146901D01*
X133533871Y-60129180D01*
X133454141Y-59969060D01*
X133396699Y-59892995D01*
X133334413Y-59810514D01*
X133187596Y-59676674D01*
X133187595Y-59676673D01*
X133123270Y-59636844D01*
X133018683Y-59572086D01*
X133018681Y-59572085D01*
X132833430Y-59500319D01*
X132833429Y-59500318D01*
X132833427Y-59500318D01*
X132638138Y-59463813D01*
X132439468Y-59463813D01*
X132244179Y-59500318D01*
X132244177Y-59500318D01*
X132244175Y-59500319D01*
X132058924Y-59572085D01*
X132058922Y-59572086D01*
X131890009Y-59676674D01*
X131743192Y-59810514D01*
X131623465Y-59969059D01*
X131534910Y-60146901D01*
X131534907Y-60146907D01*
X131480541Y-60337987D01*
X131480540Y-60337990D01*
X131462210Y-60535812D01*
X131462210Y-60535813D01*
X131075396Y-60535813D01*
X131075396Y-60535812D01*
X131057065Y-60337990D01*
X131057064Y-60337987D01*
X131002698Y-60146907D01*
X131002695Y-60146901D01*
X130993871Y-60129180D01*
X130914141Y-59969060D01*
X130856699Y-59892995D01*
X130794413Y-59810514D01*
X130647596Y-59676674D01*
X130647595Y-59676673D01*
X130583270Y-59636844D01*
X130478683Y-59572086D01*
X130478681Y-59572085D01*
X130293430Y-59500319D01*
X130293429Y-59500318D01*
X130293427Y-59500318D01*
X130098138Y-59463813D01*
X129899468Y-59463813D01*
X129704179Y-59500318D01*
X129704177Y-59500318D01*
X129704175Y-59500319D01*
X129518924Y-59572085D01*
X129518922Y-59572086D01*
X129350009Y-59676674D01*
X129203192Y-59810514D01*
X129083465Y-59969059D01*
X128994910Y-60146901D01*
X128994907Y-60146907D01*
X128940541Y-60337987D01*
X128940540Y-60337990D01*
X128922210Y-60535812D01*
X128922210Y-60535813D01*
X124841881Y-60535813D01*
X124767815Y-60398951D01*
X124767811Y-60398946D01*
X124758441Y-60386908D01*
X124646545Y-60243143D01*
X124615136Y-60202789D01*
X124615133Y-60202785D01*
X124581961Y-60172248D01*
X124442005Y-60043408D01*
X124406015Y-59983522D01*
X124408116Y-59913684D01*
X124442004Y-59860951D01*
X124615131Y-59701577D01*
X124767815Y-59505409D01*
X124886129Y-59286784D01*
X124966844Y-59051668D01*
X125007760Y-58806473D01*
X125007760Y-58557887D01*
X124966844Y-58312692D01*
X124928596Y-58201280D01*
X124886130Y-58077579D01*
X124886128Y-58077574D01*
X124841881Y-57995813D01*
X124800253Y-57918892D01*
X124785659Y-57850565D01*
X124810322Y-57785193D01*
X124821613Y-57772211D01*
X125007007Y-57586816D01*
X125068330Y-57553334D01*
X125094687Y-57550500D01*
X128846755Y-57550500D01*
X128913794Y-57570185D01*
G37*
G04 #@! TD.AperFunction*
G04 #@! TA.AperFunction,NonConductor*
G36*
X122348495Y-96131099D02*
G01*
X122401228Y-96164988D01*
X122560256Y-96337738D01*
X122643010Y-96402148D01*
X122683821Y-96458855D01*
X122687496Y-96528628D01*
X122652865Y-96589311D01*
X122643009Y-96597852D01*
X122560258Y-96662260D01*
X122401230Y-96835010D01*
X122341342Y-96871001D01*
X122271504Y-96868900D01*
X122218770Y-96835010D01*
X122179108Y-96791926D01*
X122059744Y-96662262D01*
X121976991Y-96597852D01*
X121936179Y-96541143D01*
X121932504Y-96471370D01*
X121967136Y-96410687D01*
X121976985Y-96402151D01*
X122059744Y-96337738D01*
X122218771Y-96164988D01*
X122278657Y-96128999D01*
X122348495Y-96131099D01*
G37*
G04 #@! TD.AperFunction*
G04 #@! TA.AperFunction,NonConductor*
G36*
X119808495Y-96131099D02*
G01*
X119861228Y-96164988D01*
X120020256Y-96337738D01*
X120103008Y-96402147D01*
X120143821Y-96458857D01*
X120147496Y-96528630D01*
X120112864Y-96589313D01*
X120103014Y-96597848D01*
X120047834Y-96640797D01*
X120020257Y-96662261D01*
X119861230Y-96835010D01*
X119801342Y-96871001D01*
X119731504Y-96868900D01*
X119678770Y-96835010D01*
X119639108Y-96791926D01*
X119519744Y-96662262D01*
X119436991Y-96597852D01*
X119396179Y-96541143D01*
X119392504Y-96471370D01*
X119427136Y-96410687D01*
X119436985Y-96402151D01*
X119519744Y-96337738D01*
X119678771Y-96164988D01*
X119738657Y-96128999D01*
X119808495Y-96131099D01*
G37*
G04 #@! TD.AperFunction*
G04 #@! TA.AperFunction,NonConductor*
G36*
X156959956Y-61364032D02*
G01*
X156967182Y-61370707D01*
X164683181Y-69086705D01*
X164716666Y-69148028D01*
X164719500Y-69174386D01*
X164719500Y-93784690D01*
X164699815Y-93851729D01*
X164647908Y-93897071D01*
X164636340Y-93902465D01*
X164455377Y-94029175D01*
X164299175Y-94185377D01*
X164172466Y-94366338D01*
X164172465Y-94366340D01*
X164112382Y-94495189D01*
X164066209Y-94547628D01*
X163999016Y-94566780D01*
X163932135Y-94546564D01*
X163887618Y-94495189D01*
X163827534Y-94366340D01*
X163827533Y-94366338D01*
X163808707Y-94339452D01*
X163708613Y-94196501D01*
X163700827Y-94185381D01*
X163632753Y-94117307D01*
X163544620Y-94029174D01*
X163544616Y-94029171D01*
X163544615Y-94029170D01*
X163363666Y-93902468D01*
X163363662Y-93902466D01*
X163295511Y-93870687D01*
X163163450Y-93809106D01*
X163163447Y-93809105D01*
X163163445Y-93809104D01*
X162950070Y-93751930D01*
X162950062Y-93751929D01*
X162730002Y-93732677D01*
X162729998Y-93732677D01*
X162509937Y-93751929D01*
X162509929Y-93751930D01*
X162296554Y-93809104D01*
X162296548Y-93809107D01*
X162096340Y-93902465D01*
X162096338Y-93902466D01*
X161915377Y-94029175D01*
X161759175Y-94185377D01*
X161632466Y-94366338D01*
X161632465Y-94366340D01*
X161539107Y-94566548D01*
X161539104Y-94566554D01*
X161481930Y-94779929D01*
X161481929Y-94779937D01*
X161462677Y-94999997D01*
X161462677Y-95000002D01*
X161481929Y-95220062D01*
X161481930Y-95220070D01*
X161539104Y-95433445D01*
X161539105Y-95433447D01*
X161539106Y-95433450D01*
X161559798Y-95477824D01*
X161632466Y-95633662D01*
X161632468Y-95633666D01*
X161759170Y-95814615D01*
X161759175Y-95814621D01*
X161915378Y-95970824D01*
X161915384Y-95970829D01*
X162096333Y-96097531D01*
X162096335Y-96097532D01*
X162096338Y-96097534D01*
X162168319Y-96131099D01*
X162225189Y-96157618D01*
X162277628Y-96203790D01*
X162296780Y-96270984D01*
X162276564Y-96337865D01*
X162225189Y-96382382D01*
X162096340Y-96442465D01*
X162096338Y-96442466D01*
X161915377Y-96569175D01*
X161759175Y-96725377D01*
X161632466Y-96906338D01*
X161632465Y-96906340D01*
X161539107Y-97106548D01*
X161539104Y-97106554D01*
X161481930Y-97319929D01*
X161481929Y-97319937D01*
X161462677Y-97539997D01*
X161462677Y-97540002D01*
X161481929Y-97760062D01*
X161481930Y-97760070D01*
X161539104Y-97973445D01*
X161539105Y-97973447D01*
X161539106Y-97973450D01*
X161559798Y-98017824D01*
X161632466Y-98173662D01*
X161632468Y-98173666D01*
X161759170Y-98354615D01*
X161759175Y-98354621D01*
X161915378Y-98510824D01*
X161915384Y-98510829D01*
X162096333Y-98637531D01*
X162096335Y-98637532D01*
X162096338Y-98637534D01*
X162296550Y-98730894D01*
X162509932Y-98788070D01*
X162667123Y-98801822D01*
X162729998Y-98807323D01*
X162730000Y-98807323D01*
X162730002Y-98807323D01*
X162785016Y-98802509D01*
X162950068Y-98788070D01*
X163035407Y-98765203D01*
X163105255Y-98766864D01*
X163163118Y-98806026D01*
X163190623Y-98870254D01*
X163191500Y-98884977D01*
X163191500Y-105478612D01*
X163171815Y-105545651D01*
X163155181Y-105566293D01*
X161308294Y-107413181D01*
X161246971Y-107446666D01*
X161220613Y-107449500D01*
X119279387Y-107449500D01*
X119212348Y-107429815D01*
X119191706Y-107413181D01*
X116586819Y-104808294D01*
X116553334Y-104746971D01*
X116550500Y-104720613D01*
X116550500Y-89278386D01*
X116570185Y-89211347D01*
X116622989Y-89165592D01*
X116692147Y-89155648D01*
X116755703Y-89184673D01*
X116762175Y-89190700D01*
X117063796Y-89492320D01*
X117097280Y-89553642D01*
X117092296Y-89623334D01*
X117089671Y-89629808D01*
X117075936Y-89661121D01*
X117014892Y-89902175D01*
X117014890Y-89902187D01*
X116994357Y-90149994D01*
X116994357Y-90150005D01*
X117014890Y-90397812D01*
X117014892Y-90397824D01*
X117075936Y-90638881D01*
X117175826Y-90866606D01*
X117311833Y-91074782D01*
X117311836Y-91074785D01*
X117480256Y-91257738D01*
X117563008Y-91322147D01*
X117603821Y-91378857D01*
X117607496Y-91448630D01*
X117572864Y-91509313D01*
X117563014Y-91517848D01*
X117531351Y-91542493D01*
X117480257Y-91582261D01*
X117311833Y-91765217D01*
X117175826Y-91973393D01*
X117075936Y-92201118D01*
X117014892Y-92442175D01*
X117014890Y-92442187D01*
X116994357Y-92689994D01*
X116994357Y-92690005D01*
X117014890Y-92937812D01*
X117014892Y-92937824D01*
X117075936Y-93178881D01*
X117175826Y-93406606D01*
X117311833Y-93614782D01*
X117311836Y-93614785D01*
X117480256Y-93797738D01*
X117563008Y-93862147D01*
X117603821Y-93918857D01*
X117607496Y-93988630D01*
X117572864Y-94049313D01*
X117563014Y-94057848D01*
X117531351Y-94082493D01*
X117480257Y-94122261D01*
X117311833Y-94305217D01*
X117175826Y-94513393D01*
X117075936Y-94741118D01*
X117014892Y-94982175D01*
X117014890Y-94982187D01*
X116994357Y-95229994D01*
X116994357Y-95230005D01*
X117014890Y-95477812D01*
X117014892Y-95477824D01*
X117075936Y-95718881D01*
X117175826Y-95946606D01*
X117311833Y-96154782D01*
X117311836Y-96154785D01*
X117480256Y-96337738D01*
X117563010Y-96402148D01*
X117603821Y-96458855D01*
X117607496Y-96528628D01*
X117572865Y-96589311D01*
X117563009Y-96597852D01*
X117480258Y-96662260D01*
X117311833Y-96845217D01*
X117175826Y-97053393D01*
X117075936Y-97281118D01*
X117014892Y-97522175D01*
X117014890Y-97522187D01*
X116994357Y-97769994D01*
X116994357Y-97770005D01*
X117014890Y-98017812D01*
X117014892Y-98017824D01*
X117075936Y-98258881D01*
X117175826Y-98486606D01*
X117311833Y-98694782D01*
X117311836Y-98694785D01*
X117480256Y-98877738D01*
X117676491Y-99030474D01*
X117895190Y-99148828D01*
X118130386Y-99229571D01*
X118375665Y-99270500D01*
X118624335Y-99270500D01*
X118869614Y-99229571D01*
X119104810Y-99148828D01*
X119323509Y-99030474D01*
X119519744Y-98877738D01*
X119678771Y-98704988D01*
X119738657Y-98668999D01*
X119808495Y-98671099D01*
X119861228Y-98704988D01*
X120020256Y-98877738D01*
X120103008Y-98942147D01*
X120143821Y-98998857D01*
X120147496Y-99068630D01*
X120112864Y-99129313D01*
X120103014Y-99137848D01*
X120044400Y-99183469D01*
X120020257Y-99202261D01*
X119851833Y-99385217D01*
X119715826Y-99593393D01*
X119615936Y-99821118D01*
X119554892Y-100062175D01*
X119554890Y-100062187D01*
X119534357Y-100309994D01*
X119534357Y-100310005D01*
X119554890Y-100557812D01*
X119554892Y-100557824D01*
X119615936Y-100798881D01*
X119715826Y-101026606D01*
X119851833Y-101234782D01*
X119851836Y-101234785D01*
X120020256Y-101417738D01*
X120103010Y-101482148D01*
X120143821Y-101538855D01*
X120147496Y-101608628D01*
X120112865Y-101669311D01*
X120103009Y-101677852D01*
X120020258Y-101742260D01*
X119851833Y-101925217D01*
X119715826Y-102133393D01*
X119615936Y-102361118D01*
X119554892Y-102602175D01*
X119554890Y-102602187D01*
X119534357Y-102849994D01*
X119534357Y-102850005D01*
X119554890Y-103097812D01*
X119554892Y-103097824D01*
X119615936Y-103338881D01*
X119715826Y-103566606D01*
X119851833Y-103774782D01*
X119851836Y-103774785D01*
X120020256Y-103957738D01*
X120216491Y-104110474D01*
X120435190Y-104228828D01*
X120670386Y-104309571D01*
X120915665Y-104350500D01*
X121164335Y-104350500D01*
X121409614Y-104309571D01*
X121644810Y-104228828D01*
X121863509Y-104110474D01*
X122059744Y-103957738D01*
X122228164Y-103774785D01*
X122364173Y-103566607D01*
X122464063Y-103338881D01*
X122525108Y-103097821D01*
X122545643Y-102850000D01*
X122525108Y-102602179D01*
X122464063Y-102361119D01*
X122364173Y-102133393D01*
X122364172Y-102133393D01*
X122228166Y-101925217D01*
X122206557Y-101901744D01*
X122059744Y-101742262D01*
X121976991Y-101677852D01*
X121936179Y-101621143D01*
X121932504Y-101551370D01*
X121967136Y-101490687D01*
X121976985Y-101482151D01*
X122059744Y-101417738D01*
X122228164Y-101234785D01*
X122364173Y-101026607D01*
X122464063Y-100798881D01*
X122525108Y-100557821D01*
X122545643Y-100310000D01*
X122541721Y-100262674D01*
X122525109Y-100062187D01*
X122525107Y-100062175D01*
X122464063Y-99821118D01*
X122364173Y-99593393D01*
X122228166Y-99385217D01*
X122122561Y-99270500D01*
X122059744Y-99202262D01*
X121976991Y-99137852D01*
X121936179Y-99081143D01*
X121932504Y-99011370D01*
X121967136Y-98950687D01*
X121976985Y-98942151D01*
X122059744Y-98877738D01*
X122218771Y-98704988D01*
X122278657Y-98668999D01*
X122348495Y-98671099D01*
X122401228Y-98704988D01*
X122560256Y-98877738D01*
X122756491Y-99030474D01*
X122975190Y-99148828D01*
X123210386Y-99229571D01*
X123455665Y-99270500D01*
X123704335Y-99270500D01*
X123949614Y-99229571D01*
X124184810Y-99148828D01*
X124403509Y-99030474D01*
X124599744Y-98877738D01*
X124768164Y-98694785D01*
X124904173Y-98486607D01*
X125004063Y-98258881D01*
X125065108Y-98017821D01*
X125085643Y-97770000D01*
X125084820Y-97760070D01*
X125065109Y-97522187D01*
X125065107Y-97522175D01*
X125004063Y-97281118D01*
X124904173Y-97053393D01*
X124768166Y-96845217D01*
X124746557Y-96821744D01*
X124599744Y-96662262D01*
X124516991Y-96597852D01*
X124476179Y-96541143D01*
X124472504Y-96471370D01*
X124507136Y-96410687D01*
X124516985Y-96402151D01*
X124599744Y-96337738D01*
X124768164Y-96154785D01*
X124904173Y-95946607D01*
X125004063Y-95718881D01*
X125065108Y-95477821D01*
X125068785Y-95433445D01*
X125085643Y-95230005D01*
X125085643Y-95229994D01*
X125065109Y-94982187D01*
X125065107Y-94982175D01*
X125004063Y-94741118D01*
X124904173Y-94513393D01*
X124768166Y-94305217D01*
X124720286Y-94253206D01*
X124599744Y-94122262D01*
X124403509Y-93969526D01*
X124403507Y-93969525D01*
X124403506Y-93969524D01*
X124184811Y-93851172D01*
X124184802Y-93851169D01*
X123949616Y-93770429D01*
X123704335Y-93729500D01*
X123455665Y-93729500D01*
X123210383Y-93770429D01*
X122975197Y-93851169D01*
X122975188Y-93851172D01*
X122756493Y-93969524D01*
X122560257Y-94122261D01*
X122401230Y-94295010D01*
X122341342Y-94331001D01*
X122271504Y-94328900D01*
X122218770Y-94295010D01*
X122179108Y-94251926D01*
X122059744Y-94122262D01*
X121863509Y-93969526D01*
X121863507Y-93969525D01*
X121863506Y-93969524D01*
X121644811Y-93851172D01*
X121644802Y-93851169D01*
X121409616Y-93770429D01*
X121164335Y-93729500D01*
X120915665Y-93729500D01*
X120670383Y-93770429D01*
X120435197Y-93851169D01*
X120435188Y-93851172D01*
X120216493Y-93969524D01*
X120020257Y-94122261D01*
X119861230Y-94295010D01*
X119801342Y-94331001D01*
X119731504Y-94328900D01*
X119678770Y-94295010D01*
X119639108Y-94251926D01*
X119519744Y-94122262D01*
X119436991Y-94057852D01*
X119396179Y-94001143D01*
X119392504Y-93931370D01*
X119427136Y-93870687D01*
X119436985Y-93862151D01*
X119519744Y-93797738D01*
X119688164Y-93614785D01*
X119824173Y-93406607D01*
X119924063Y-93178881D01*
X119985108Y-92937821D01*
X119985109Y-92937812D01*
X120005643Y-92690005D01*
X132234357Y-92690005D01*
X132254890Y-92937812D01*
X132254892Y-92937824D01*
X132315936Y-93178881D01*
X132415826Y-93406606D01*
X132551833Y-93614782D01*
X132551836Y-93614785D01*
X132720256Y-93797738D01*
X132916491Y-93950474D01*
X133135190Y-94068828D01*
X133370386Y-94149571D01*
X133615665Y-94190500D01*
X133864335Y-94190500D01*
X134109614Y-94149571D01*
X134344810Y-94068828D01*
X134563509Y-93950474D01*
X134759744Y-93797738D01*
X134928164Y-93614785D01*
X135064173Y-93406607D01*
X135164063Y-93178881D01*
X135225108Y-92937821D01*
X135225109Y-92937812D01*
X135245643Y-92690005D01*
X135245643Y-92689994D01*
X135225109Y-92442187D01*
X135225107Y-92442175D01*
X135164063Y-92201118D01*
X135064173Y-91973393D01*
X134928166Y-91765217D01*
X134897134Y-91731507D01*
X134759744Y-91582262D01*
X134676991Y-91517852D01*
X134636179Y-91461143D01*
X134632504Y-91391370D01*
X134667136Y-91330687D01*
X134676985Y-91322151D01*
X134759744Y-91257738D01*
X134928164Y-91074785D01*
X135064173Y-90866607D01*
X135164063Y-90638881D01*
X135225108Y-90397821D01*
X135225109Y-90397812D01*
X135245643Y-90150005D01*
X135245643Y-90149994D01*
X135225109Y-89902187D01*
X135225107Y-89902175D01*
X135164063Y-89661118D01*
X135064173Y-89433393D01*
X134928166Y-89225217D01*
X134906557Y-89201744D01*
X134759744Y-89042262D01*
X134563509Y-88889526D01*
X134563508Y-88889525D01*
X134563505Y-88889523D01*
X134563503Y-88889522D01*
X134523690Y-88867976D01*
X134474100Y-88818756D01*
X134458993Y-88750539D01*
X134483164Y-88684984D01*
X134511583Y-88657349D01*
X134579139Y-88610047D01*
X134740047Y-88449139D01*
X134870568Y-88262734D01*
X134966739Y-88056496D01*
X135025635Y-87836692D01*
X135045468Y-87610000D01*
X135045467Y-87609994D01*
X135031440Y-87449662D01*
X135045207Y-87381162D01*
X135093822Y-87330978D01*
X135161850Y-87315045D01*
X135227694Y-87338420D01*
X135242643Y-87351168D01*
X135728162Y-87836686D01*
X136413181Y-88521705D01*
X136446666Y-88583028D01*
X136449500Y-88609385D01*
X136449500Y-103990602D01*
X136447399Y-104052129D01*
X136447238Y-104056829D01*
X136457715Y-104099819D01*
X136458901Y-104106061D01*
X136464929Y-104149920D01*
X136472079Y-104166379D01*
X136478819Y-104186420D01*
X136483067Y-104203852D01*
X136504763Y-104242439D01*
X136507582Y-104248115D01*
X136525220Y-104288720D01*
X136525221Y-104288722D01*
X136536541Y-104302636D01*
X136548439Y-104320117D01*
X136557234Y-104335760D01*
X136557236Y-104335761D01*
X136588532Y-104367057D01*
X136592783Y-104371766D01*
X136620722Y-104406108D01*
X136635381Y-104416455D01*
X136651552Y-104430077D01*
X137604093Y-105382618D01*
X137649320Y-105431044D01*
X137687144Y-105454045D01*
X137692374Y-105457604D01*
X137727658Y-105484361D01*
X137735930Y-105487623D01*
X137744353Y-105490945D01*
X137763290Y-105500351D01*
X137778618Y-105509672D01*
X137821247Y-105521616D01*
X137827263Y-105523639D01*
X137868436Y-105539876D01*
X137886287Y-105541711D01*
X137907052Y-105545657D01*
X137924335Y-105550500D01*
X137968594Y-105550500D01*
X137974935Y-105550824D01*
X138018972Y-105555352D01*
X138036655Y-105552303D01*
X138057724Y-105550500D01*
X142551150Y-105550500D01*
X142618189Y-105570185D01*
X142663944Y-105622989D01*
X142664706Y-105624690D01*
X142684075Y-105668848D01*
X142811016Y-105863147D01*
X142811019Y-105863151D01*
X142811021Y-105863153D01*
X142968216Y-106033913D01*
X142968219Y-106033915D01*
X142968222Y-106033918D01*
X143151365Y-106176464D01*
X143151371Y-106176468D01*
X143151374Y-106176470D01*
X143355497Y-106286936D01*
X143469487Y-106326068D01*
X143575015Y-106362297D01*
X143575017Y-106362297D01*
X143575019Y-106362298D01*
X143803951Y-106400500D01*
X143803952Y-106400500D01*
X144036048Y-106400500D01*
X144036049Y-106400500D01*
X144264981Y-106362298D01*
X144484503Y-106286936D01*
X144688626Y-106176470D01*
X144688660Y-106176444D01*
X144775724Y-106108679D01*
X144871784Y-106033913D01*
X145028979Y-105863153D01*
X145155924Y-105668849D01*
X145249157Y-105456300D01*
X145306134Y-105231305D01*
X145308409Y-105203852D01*
X145325300Y-105000006D01*
X145325300Y-104999993D01*
X145306135Y-104768702D01*
X145306133Y-104768691D01*
X145249157Y-104543699D01*
X145155924Y-104331151D01*
X145028983Y-104136852D01*
X145028980Y-104136849D01*
X145028979Y-104136847D01*
X144871784Y-103966087D01*
X144871779Y-103966083D01*
X144871777Y-103966081D01*
X144688634Y-103823535D01*
X144688628Y-103823531D01*
X144484504Y-103713064D01*
X144484495Y-103713061D01*
X144264984Y-103637702D01*
X144074450Y-103605908D01*
X144036049Y-103599500D01*
X143803951Y-103599500D01*
X143765550Y-103605908D01*
X143575015Y-103637702D01*
X143355504Y-103713061D01*
X143355495Y-103713064D01*
X143151371Y-103823531D01*
X143151365Y-103823535D01*
X142968222Y-103966081D01*
X142968219Y-103966084D01*
X142968216Y-103966086D01*
X142968216Y-103966087D01*
X142943886Y-103992517D01*
X142811016Y-104136852D01*
X142684075Y-104331151D01*
X142664706Y-104375310D01*
X142619750Y-104428796D01*
X142553014Y-104449486D01*
X142551150Y-104449500D01*
X138279387Y-104449500D01*
X138212348Y-104429815D01*
X138191706Y-104413181D01*
X137586819Y-103808294D01*
X137553334Y-103746971D01*
X137550500Y-103720613D01*
X137550500Y-92963330D01*
X147553210Y-92963330D01*
X147583425Y-93186387D01*
X147583426Y-93186390D01*
X147652983Y-93400465D01*
X147759646Y-93598678D01*
X147759648Y-93598681D01*
X147899989Y-93774663D01*
X147899991Y-93774664D01*
X147899992Y-93774666D01*
X148069504Y-93922765D01*
X148141957Y-93966053D01*
X148189410Y-94017334D01*
X148201605Y-94086132D01*
X148174670Y-94150601D01*
X148117157Y-94190273D01*
X148078359Y-94196500D01*
X148009630Y-94196500D01*
X148009623Y-94196501D01*
X147950016Y-94202908D01*
X147815171Y-94253202D01*
X147815164Y-94253206D01*
X147699955Y-94339452D01*
X147699952Y-94339455D01*
X147613706Y-94454664D01*
X147613702Y-94454671D01*
X147563408Y-94589517D01*
X147557001Y-94649116D01*
X147557001Y-94649123D01*
X147557000Y-94649135D01*
X147557000Y-96244870D01*
X147557001Y-96244876D01*
X147563408Y-96304483D01*
X147613702Y-96439328D01*
X147613706Y-96439335D01*
X147699952Y-96554544D01*
X147699955Y-96554547D01*
X147815164Y-96640793D01*
X147815171Y-96640797D01*
X147950017Y-96691091D01*
X147950016Y-96691091D01*
X147956944Y-96691835D01*
X148009627Y-96697500D01*
X149628112Y-96697499D01*
X149695151Y-96717184D01*
X149715793Y-96733817D01*
X153493182Y-100511207D01*
X153526666Y-100572528D01*
X153529500Y-100598886D01*
X153529500Y-103475500D01*
X153509815Y-103542539D01*
X153457011Y-103588294D01*
X153405500Y-103599500D01*
X153132130Y-103599500D01*
X153132123Y-103599501D01*
X153072516Y-103605908D01*
X152937671Y-103656202D01*
X152937664Y-103656206D01*
X152822455Y-103742452D01*
X152822452Y-103742455D01*
X152736206Y-103857664D01*
X152736202Y-103857671D01*
X152685908Y-103992517D01*
X152679501Y-104052116D01*
X152679501Y-104052123D01*
X152679500Y-104052135D01*
X152679500Y-105947870D01*
X152679501Y-105947876D01*
X152685908Y-106007483D01*
X152736202Y-106142328D01*
X152736206Y-106142335D01*
X152822452Y-106257544D01*
X152822455Y-106257547D01*
X152937664Y-106343793D01*
X152937671Y-106343797D01*
X153072517Y-106394091D01*
X153072516Y-106394091D01*
X153079444Y-106394835D01*
X153132127Y-106400500D01*
X155027872Y-106400499D01*
X155087483Y-106394091D01*
X155222331Y-106343796D01*
X155337546Y-106257546D01*
X155423796Y-106142331D01*
X155474091Y-106007483D01*
X155480500Y-105947873D01*
X155480499Y-104052128D01*
X155474091Y-103992517D01*
X155464233Y-103966087D01*
X155423797Y-103857671D01*
X155423793Y-103857664D01*
X155337547Y-103742455D01*
X155337544Y-103742452D01*
X155222335Y-103656206D01*
X155222328Y-103656202D01*
X155087482Y-103605908D01*
X155087483Y-103605908D01*
X155027883Y-103599501D01*
X155027881Y-103599500D01*
X155027873Y-103599500D01*
X155027865Y-103599500D01*
X154754500Y-103599500D01*
X154687461Y-103579815D01*
X154641706Y-103527011D01*
X154630500Y-103475500D01*
X154630500Y-100328926D01*
X154631146Y-100310000D01*
X154632763Y-100262674D01*
X154622278Y-100219651D01*
X154621099Y-100213448D01*
X154615070Y-100169580D01*
X154607921Y-100153122D01*
X154601183Y-100133084D01*
X154596934Y-100115648D01*
X154575231Y-100077050D01*
X154572414Y-100071378D01*
X154554780Y-100030780D01*
X154543455Y-100016860D01*
X154531559Y-99999380D01*
X154522765Y-99983739D01*
X154522764Y-99983738D01*
X154507115Y-99968090D01*
X154491456Y-99952431D01*
X154487209Y-99947724D01*
X154485554Y-99945690D01*
X154459278Y-99913392D01*
X154444612Y-99903039D01*
X154428445Y-99889420D01*
X150892756Y-96353731D01*
X150859271Y-96292408D01*
X150857148Y-96252795D01*
X150858000Y-96244873D01*
X150857999Y-94649128D01*
X150851591Y-94589517D01*
X150843026Y-94566554D01*
X150801297Y-94454671D01*
X150801293Y-94454664D01*
X150715047Y-94339455D01*
X150715044Y-94339452D01*
X150599835Y-94253206D01*
X150599828Y-94253202D01*
X150464982Y-94202908D01*
X150464983Y-94202908D01*
X150405383Y-94196501D01*
X150405381Y-94196500D01*
X150405373Y-94196500D01*
X150405365Y-94196500D01*
X150341765Y-94196500D01*
X150274726Y-94176815D01*
X150228971Y-94124011D01*
X150219027Y-94054853D01*
X150248052Y-93991297D01*
X150268880Y-93972182D01*
X150272536Y-93969526D01*
X150433578Y-93852522D01*
X150589132Y-93689825D01*
X150713135Y-93501968D01*
X150753895Y-93406607D01*
X150801600Y-93294995D01*
X150801599Y-93294995D01*
X150801603Y-93294988D01*
X150851691Y-93075537D01*
X150861790Y-92850670D01*
X150831575Y-92627613D01*
X150762017Y-92413536D01*
X150655352Y-92215319D01*
X150515008Y-92039334D01*
X150345496Y-91891235D01*
X150152267Y-91775787D01*
X150152268Y-91775787D01*
X150152266Y-91775786D01*
X150152264Y-91775785D01*
X150093396Y-91753691D01*
X150037550Y-91711706D01*
X150013267Y-91646191D01*
X150028259Y-91577949D01*
X150077765Y-91528645D01*
X150083110Y-91525907D01*
X150251473Y-91444829D01*
X150433578Y-91312522D01*
X150589132Y-91149825D01*
X150713135Y-90961968D01*
X150753895Y-90866607D01*
X150801600Y-90754995D01*
X150801599Y-90754995D01*
X150801603Y-90754988D01*
X150851691Y-90535537D01*
X150861790Y-90310670D01*
X150831575Y-90087613D01*
X150762017Y-89873536D01*
X150707396Y-89772033D01*
X150706879Y-89771072D01*
X150692445Y-89702709D01*
X150717263Y-89637395D01*
X150728385Y-89624638D01*
X154462618Y-85890406D01*
X154511044Y-85845180D01*
X154534049Y-85807347D01*
X154537606Y-85802122D01*
X154564361Y-85766842D01*
X154570943Y-85750148D01*
X154580344Y-85731219D01*
X154589672Y-85715882D01*
X154601619Y-85673239D01*
X154603632Y-85667253D01*
X154619876Y-85626064D01*
X154620216Y-85622762D01*
X154621711Y-85608216D01*
X154625658Y-85587444D01*
X154630500Y-85570165D01*
X154630500Y-85525904D01*
X154630825Y-85519560D01*
X154631523Y-85512768D01*
X154635352Y-85475528D01*
X154632303Y-85457843D01*
X154630500Y-85436775D01*
X154630500Y-79368402D01*
X154650185Y-79301363D01*
X154695483Y-79259347D01*
X154703717Y-79254890D01*
X154848626Y-79176470D01*
X155031784Y-79033913D01*
X155188979Y-78863153D01*
X155315924Y-78668849D01*
X155409157Y-78456300D01*
X155466134Y-78231305D01*
X155485300Y-78000000D01*
X155485300Y-77999993D01*
X155466135Y-77768702D01*
X155466133Y-77768691D01*
X155409157Y-77543699D01*
X155315924Y-77331151D01*
X155188983Y-77136852D01*
X155188980Y-77136849D01*
X155188979Y-77136847D01*
X155031784Y-76966087D01*
X155031779Y-76966083D01*
X155031777Y-76966081D01*
X154848634Y-76823535D01*
X154848628Y-76823531D01*
X154644504Y-76713064D01*
X154644495Y-76713061D01*
X154424984Y-76637702D01*
X154234450Y-76605908D01*
X154196049Y-76599500D01*
X153963951Y-76599500D01*
X153925550Y-76605908D01*
X153735015Y-76637702D01*
X153515504Y-76713061D01*
X153515495Y-76713064D01*
X153311371Y-76823531D01*
X153311365Y-76823535D01*
X153128222Y-76966081D01*
X153128219Y-76966084D01*
X153128216Y-76966086D01*
X153128216Y-76966087D01*
X153103886Y-76992517D01*
X152971016Y-77136852D01*
X152844075Y-77331151D01*
X152750842Y-77543699D01*
X152693866Y-77768691D01*
X152693864Y-77768702D01*
X152674700Y-77999993D01*
X152674700Y-78000006D01*
X152693864Y-78231297D01*
X152693866Y-78231308D01*
X152750842Y-78456300D01*
X152844075Y-78668848D01*
X152971016Y-78863147D01*
X152971019Y-78863151D01*
X152971021Y-78863153D01*
X153128216Y-79033913D01*
X153128219Y-79033915D01*
X153128222Y-79033918D01*
X153311365Y-79176464D01*
X153311376Y-79176471D01*
X153464517Y-79259347D01*
X153514108Y-79308567D01*
X153529500Y-79368402D01*
X153529500Y-85215112D01*
X153509815Y-85282151D01*
X153493181Y-85302793D01*
X149715794Y-89080181D01*
X149654471Y-89113666D01*
X149628113Y-89116500D01*
X148751345Y-89116500D01*
X148712899Y-89119960D01*
X148583313Y-89131622D01*
X148583307Y-89131623D01*
X148366339Y-89191503D01*
X148366326Y-89191508D01*
X148163533Y-89289167D01*
X148163525Y-89289171D01*
X147981427Y-89421473D01*
X147981425Y-89421474D01*
X147825866Y-89584176D01*
X147701863Y-89772033D01*
X147613399Y-89979004D01*
X147613395Y-89979017D01*
X147563310Y-90198457D01*
X147563308Y-90198468D01*
X147554355Y-90397824D01*
X147553210Y-90423330D01*
X147583425Y-90646387D01*
X147583426Y-90646390D01*
X147652983Y-90860465D01*
X147759646Y-91058678D01*
X147759648Y-91058681D01*
X147899989Y-91234663D01*
X147899991Y-91234664D01*
X147899992Y-91234666D01*
X148069504Y-91382765D01*
X148262736Y-91498215D01*
X148321602Y-91520307D01*
X148377449Y-91562292D01*
X148401732Y-91627806D01*
X148386741Y-91696049D01*
X148337235Y-91745353D01*
X148331831Y-91748120D01*
X148163533Y-91829167D01*
X148163525Y-91829171D01*
X147981427Y-91961473D01*
X147981425Y-91961474D01*
X147825866Y-92124176D01*
X147701863Y-92312033D01*
X147613399Y-92519004D01*
X147613395Y-92519017D01*
X147563310Y-92738457D01*
X147563308Y-92738468D01*
X147554355Y-92937824D01*
X147553210Y-92963330D01*
X137550500Y-92963330D01*
X137550500Y-88339397D01*
X137550937Y-88326606D01*
X137552762Y-88273174D01*
X137542283Y-88230174D01*
X137541096Y-88223931D01*
X137535070Y-88180082D01*
X137535070Y-88180080D01*
X137527921Y-88163622D01*
X137521180Y-88143578D01*
X137516933Y-88126148D01*
X137501602Y-88098881D01*
X137495239Y-88087564D01*
X137492414Y-88081876D01*
X137481386Y-88056488D01*
X137474780Y-88041280D01*
X137463454Y-88027359D01*
X137451556Y-88009877D01*
X137442764Y-87994240D01*
X137411472Y-87962948D01*
X137407215Y-87958231D01*
X137379278Y-87923892D01*
X137364613Y-87913540D01*
X137348441Y-87899917D01*
X135016998Y-85568473D01*
X134983513Y-85507150D01*
X134984903Y-85448703D01*
X135025635Y-85296692D01*
X135045468Y-85070000D01*
X135025635Y-84843308D01*
X134966739Y-84623504D01*
X134870568Y-84417266D01*
X134740047Y-84230861D01*
X134740045Y-84230858D01*
X134579141Y-84069954D01*
X134392734Y-83939432D01*
X134392732Y-83939431D01*
X134186497Y-83843261D01*
X134186488Y-83843258D01*
X133966697Y-83784366D01*
X133966693Y-83784365D01*
X133966692Y-83784365D01*
X133966691Y-83784364D01*
X133966686Y-83784364D01*
X133740002Y-83764532D01*
X133739998Y-83764532D01*
X133513313Y-83784364D01*
X133513302Y-83784366D01*
X133293511Y-83843258D01*
X133293502Y-83843261D01*
X133087267Y-83939431D01*
X133087265Y-83939432D01*
X132900858Y-84069954D01*
X132739954Y-84230858D01*
X132609432Y-84417265D01*
X132609431Y-84417267D01*
X132513261Y-84623502D01*
X132513258Y-84623511D01*
X132454366Y-84843302D01*
X132454364Y-84843313D01*
X132434532Y-85069998D01*
X132434532Y-85070001D01*
X132454364Y-85296686D01*
X132454366Y-85296697D01*
X132513258Y-85516488D01*
X132513261Y-85516497D01*
X132609431Y-85722732D01*
X132609432Y-85722734D01*
X132739954Y-85909141D01*
X132900858Y-86070045D01*
X132900861Y-86070047D01*
X133087266Y-86200568D01*
X133145275Y-86227618D01*
X133197714Y-86273791D01*
X133216866Y-86340984D01*
X133196650Y-86407865D01*
X133145275Y-86452382D01*
X133087267Y-86479431D01*
X133087265Y-86479432D01*
X132900858Y-86609954D01*
X132739954Y-86770858D01*
X132609432Y-86957265D01*
X132609431Y-86957267D01*
X132513261Y-87163502D01*
X132513258Y-87163511D01*
X132454366Y-87383302D01*
X132454364Y-87383313D01*
X132434532Y-87609998D01*
X132434532Y-87610001D01*
X132454364Y-87836686D01*
X132454366Y-87836697D01*
X132513258Y-88056488D01*
X132513261Y-88056497D01*
X132609431Y-88262732D01*
X132609432Y-88262734D01*
X132739954Y-88449141D01*
X132900856Y-88610043D01*
X132900859Y-88610045D01*
X132900861Y-88610047D01*
X132942524Y-88639219D01*
X132968414Y-88657348D01*
X133012038Y-88711925D01*
X133019231Y-88781424D01*
X132987709Y-88843778D01*
X132956308Y-88867977D01*
X132916501Y-88889519D01*
X132916494Y-88889523D01*
X132720257Y-89042261D01*
X132551833Y-89225217D01*
X132415826Y-89433393D01*
X132315936Y-89661118D01*
X132254892Y-89902175D01*
X132254890Y-89902187D01*
X132234357Y-90149994D01*
X132234357Y-90150005D01*
X132254890Y-90397812D01*
X132254892Y-90397824D01*
X132315936Y-90638881D01*
X132415826Y-90866606D01*
X132551833Y-91074782D01*
X132551836Y-91074785D01*
X132720256Y-91257738D01*
X132803008Y-91322147D01*
X132843821Y-91378857D01*
X132847496Y-91448630D01*
X132812864Y-91509313D01*
X132803014Y-91517848D01*
X132771351Y-91542493D01*
X132720257Y-91582261D01*
X132551833Y-91765217D01*
X132415826Y-91973393D01*
X132315936Y-92201118D01*
X132254892Y-92442175D01*
X132254890Y-92442187D01*
X132234357Y-92689994D01*
X132234357Y-92690005D01*
X120005643Y-92690005D01*
X120005643Y-92689994D01*
X119985109Y-92442187D01*
X119985107Y-92442175D01*
X119924063Y-92201118D01*
X119824173Y-91973393D01*
X119688166Y-91765217D01*
X119657134Y-91731507D01*
X119519744Y-91582262D01*
X119436991Y-91517852D01*
X119396179Y-91461143D01*
X119392504Y-91391370D01*
X119427136Y-91330687D01*
X119436985Y-91322151D01*
X119519744Y-91257738D01*
X119688164Y-91074785D01*
X119824173Y-90866607D01*
X119924063Y-90638881D01*
X119985108Y-90397821D01*
X119985109Y-90397812D01*
X120005643Y-90150005D01*
X120005643Y-90149994D01*
X119985109Y-89902187D01*
X119985107Y-89902175D01*
X119924063Y-89661118D01*
X119824173Y-89433393D01*
X119688166Y-89225217D01*
X119666557Y-89201744D01*
X119519744Y-89042262D01*
X119436991Y-88977852D01*
X119396179Y-88921143D01*
X119392504Y-88851370D01*
X119427136Y-88790687D01*
X119436985Y-88782151D01*
X119519744Y-88717738D01*
X119688164Y-88534785D01*
X119824173Y-88326607D01*
X119924063Y-88098881D01*
X119985108Y-87857821D01*
X119985109Y-87857812D01*
X120005643Y-87610005D01*
X120005643Y-87609994D01*
X119985109Y-87362187D01*
X119985107Y-87362175D01*
X119924063Y-87121118D01*
X119824173Y-86893393D01*
X119688166Y-86685217D01*
X119618880Y-86609953D01*
X119519744Y-86502262D01*
X119436991Y-86437852D01*
X119396179Y-86381143D01*
X119392504Y-86311370D01*
X119427136Y-86250687D01*
X119436985Y-86242151D01*
X119519744Y-86177738D01*
X119688164Y-85994785D01*
X119824173Y-85786607D01*
X119855196Y-85715882D01*
X119864492Y-85694690D01*
X119909448Y-85641204D01*
X119976184Y-85620514D01*
X119978048Y-85620500D01*
X127765813Y-85620500D01*
X127832036Y-85622762D01*
X127875042Y-85612280D01*
X127881261Y-85611098D01*
X127925130Y-85605070D01*
X127941593Y-85597918D01*
X127961626Y-85591181D01*
X127979062Y-85586933D01*
X128017675Y-85565221D01*
X128023300Y-85562427D01*
X128063930Y-85544780D01*
X128077842Y-85533460D01*
X128095333Y-85521557D01*
X128104333Y-85516497D01*
X128110969Y-85512766D01*
X128142269Y-85481464D01*
X128146981Y-85477211D01*
X128181318Y-85449278D01*
X128191666Y-85434616D01*
X128205284Y-85418449D01*
X138265737Y-75357995D01*
X138327058Y-75324512D01*
X138396750Y-75329496D01*
X138403219Y-75332119D01*
X138434315Y-75345759D01*
X138675294Y-75406783D01*
X138860987Y-75422170D01*
X138860989Y-75422170D01*
X139734371Y-75422170D01*
X139734373Y-75422170D01*
X139920066Y-75406783D01*
X140161045Y-75345759D01*
X140388693Y-75245903D01*
X140596801Y-75109940D01*
X140779691Y-74941577D01*
X140932375Y-74745409D01*
X141046954Y-74533684D01*
X141096175Y-74484093D01*
X141164391Y-74468985D01*
X141229947Y-74493155D01*
X141243691Y-74505020D01*
X143126490Y-76387819D01*
X143159975Y-76449142D01*
X143154991Y-76518834D01*
X143113119Y-76574767D01*
X143047655Y-76599184D01*
X143038811Y-76599500D01*
X142972130Y-76599500D01*
X142972123Y-76599501D01*
X142912516Y-76605908D01*
X142777671Y-76656202D01*
X142777664Y-76656206D01*
X142662455Y-76742452D01*
X142662452Y-76742455D01*
X142576206Y-76857664D01*
X142576202Y-76857671D01*
X142525908Y-76992517D01*
X142519501Y-77052116D01*
X142519501Y-77052123D01*
X142519500Y-77052135D01*
X142519500Y-78947870D01*
X142519501Y-78947876D01*
X142525908Y-79007483D01*
X142576202Y-79142328D01*
X142576206Y-79142335D01*
X142662452Y-79257544D01*
X142662455Y-79257547D01*
X142777664Y-79343793D01*
X142777671Y-79343797D01*
X142912517Y-79394091D01*
X142912516Y-79394091D01*
X142919444Y-79394835D01*
X142972127Y-79400500D01*
X144867872Y-79400499D01*
X144927483Y-79394091D01*
X145062331Y-79343796D01*
X145177546Y-79257546D01*
X145263796Y-79142331D01*
X145314091Y-79007483D01*
X145320500Y-78947873D01*
X145320499Y-77052128D01*
X145314091Y-76992517D01*
X145304233Y-76966087D01*
X145263797Y-76857671D01*
X145263793Y-76857664D01*
X145177547Y-76742455D01*
X145177544Y-76742452D01*
X145062335Y-76656206D01*
X145062328Y-76656202D01*
X144927482Y-76605908D01*
X144927483Y-76605908D01*
X144867883Y-76599501D01*
X144867881Y-76599500D01*
X144867873Y-76599500D01*
X144867865Y-76599500D01*
X144594500Y-76599500D01*
X144527461Y-76579815D01*
X144481706Y-76527011D01*
X144470500Y-76475500D01*
X144470500Y-76412201D01*
X144470500Y-76412200D01*
X144472762Y-76345978D01*
X144462283Y-76302978D01*
X144461096Y-76296735D01*
X144455070Y-76252886D01*
X144455070Y-76252884D01*
X144447921Y-76236426D01*
X144441180Y-76216382D01*
X144436933Y-76198952D01*
X144415238Y-76160368D01*
X144412414Y-76154682D01*
X144394780Y-76114084D01*
X144394780Y-76114083D01*
X144383458Y-76100167D01*
X144371557Y-76082680D01*
X144362768Y-76067048D01*
X144362767Y-76067047D01*
X144362766Y-76067045D01*
X144331456Y-76035735D01*
X144327210Y-76031029D01*
X144319812Y-76021936D01*
X144299278Y-75996696D01*
X144284612Y-75986343D01*
X144268445Y-75972724D01*
X140821059Y-72525338D01*
X140787574Y-72464015D01*
X140792558Y-72394323D01*
X140810882Y-72361502D01*
X140932375Y-72205409D01*
X141050689Y-71986784D01*
X141131404Y-71751668D01*
X141172320Y-71506473D01*
X141172320Y-71257887D01*
X141131404Y-71012692D01*
X141107277Y-70942413D01*
X141050690Y-70777579D01*
X141050688Y-70777574D01*
X140932375Y-70558951D01*
X140932371Y-70558946D01*
X140779696Y-70362789D01*
X140779693Y-70362785D01*
X140779691Y-70362783D01*
X140606565Y-70203408D01*
X140570575Y-70143522D01*
X140572676Y-70073684D01*
X140606564Y-70020951D01*
X140779691Y-69861577D01*
X140932375Y-69665409D01*
X141050689Y-69446784D01*
X141131404Y-69211668D01*
X141172320Y-68966473D01*
X141172320Y-68717887D01*
X141131404Y-68472692D01*
X141131312Y-68472425D01*
X141050690Y-68237579D01*
X141050688Y-68237574D01*
X140932375Y-68018951D01*
X140932371Y-68018946D01*
X140779696Y-67822789D01*
X140779693Y-67822785D01*
X140779691Y-67822783D01*
X140606565Y-67663408D01*
X140570575Y-67603522D01*
X140572676Y-67533684D01*
X140606564Y-67480951D01*
X140779691Y-67321577D01*
X140932375Y-67125409D01*
X141050689Y-66906784D01*
X141131404Y-66671668D01*
X141172320Y-66426473D01*
X141172320Y-66177887D01*
X141131404Y-65932692D01*
X141050689Y-65697576D01*
X140932375Y-65478951D01*
X140779691Y-65282783D01*
X140606565Y-65123408D01*
X140570575Y-65063522D01*
X140572676Y-64993684D01*
X140606564Y-64940951D01*
X140779691Y-64781577D01*
X140932375Y-64585409D01*
X141044802Y-64377661D01*
X141094022Y-64328072D01*
X141153857Y-64312680D01*
X152478423Y-64312680D01*
X152544646Y-64314942D01*
X152587652Y-64304460D01*
X152593871Y-64303278D01*
X152637740Y-64297250D01*
X152654203Y-64290098D01*
X152674236Y-64283361D01*
X152691672Y-64279113D01*
X152730285Y-64257401D01*
X152735910Y-64254607D01*
X152776540Y-64236960D01*
X152790452Y-64225640D01*
X152807943Y-64213737D01*
X152823575Y-64204948D01*
X152823573Y-64204948D01*
X152823579Y-64204946D01*
X152854879Y-64173644D01*
X152859591Y-64169391D01*
X152893928Y-64141458D01*
X152904276Y-64126796D01*
X152917894Y-64110629D01*
X155618065Y-61410458D01*
X155679386Y-61376975D01*
X155749078Y-61381959D01*
X155758147Y-61385758D01*
X155786337Y-61398903D01*
X156014592Y-61460063D01*
X156194634Y-61475815D01*
X156249999Y-61480659D01*
X156250000Y-61480659D01*
X156250001Y-61480659D01*
X156305366Y-61475815D01*
X156485408Y-61460063D01*
X156713663Y-61398903D01*
X156827097Y-61346006D01*
X156896172Y-61335514D01*
X156959956Y-61364032D01*
G37*
G04 #@! TD.AperFunction*
M02*
