M48
; DRILL file {KiCad 7.0.7} date Tue Oct 31 18:14:31 2023
; FORMAT={-:-/ absolute / inch / decimal}
; #@! TF.CreationDate,2023-10-31T18:14:31+09:00
; #@! TF.GenerationSoftware,Kicad,Pcbnew,7.0.7
; #@! TF.FileFunction,Plated,1,2,PTH
FMAT,2
INCH
; #@! TA.AperFunction,Plated,PTH,ViaDrill
T1C0.0157
; #@! TA.AperFunction,Plated,PTH,ComponentDrill
T2C0.0300
; #@! TA.AperFunction,Plated,PTH,ComponentDrill
T3C0.0354
; #@! TA.AperFunction,Plated,PTH,ComponentDrill
T4C0.0374
; #@! TA.AperFunction,Plated,PTH,ComponentDrill
T5C0.0394
%
G90
G05
T1
X5.7087Y-2.4016
T2
X6.4067Y-3.7402
X6.4067Y-3.8402
X6.5067Y-3.7402
T3
X5.6661Y-3.0709
X5.6661Y-4.1339
X6.0661Y-3.0709
X6.0661Y-4.1339
T4
X5.9547Y-2.3622
X6.0531Y-2.3622
X6.1516Y-2.3622
X6.25Y-2.3622
T5
X4.6654Y-3.3492
X4.6654Y-3.4492
X4.6654Y-3.5492
X4.6654Y-3.6492
X4.6654Y-3.7492
X4.6654Y-3.8492
X4.7654Y-3.7492
X4.7654Y-3.8492
X4.7654Y-3.9492
X4.7654Y-4.0492
X4.8654Y-3.7492
X4.8654Y-3.8492
X5.2654Y-3.3492
X5.2654Y-3.4492
X5.2654Y-3.5492
X5.2654Y-3.6492
X5.8743Y-3.5578
X5.8743Y-3.6578
X5.8743Y-3.7578
T0
M30
